<svg xmlns="http://www.w3.org/2000/svg" width="1280" height="720" viewBox="0 0 1280 720">
<g>
<path d="M 1241.39,362.06 L 1242.08,362.25 L 1242.39,362.38 L 1242.73,362.83 L 1242.86,363.10 L 1242.89,363.88 L 1242.86,364.31 L 1242.60,365.49 L 1242.43,366.13 L 1241.92,367.78 L 1240.90,370.83 L 1240.32,372.55 L 1238.89,375.77 L 1238.14,377.35 L 1236.39,380.25 L 1235.49,381.66 L 1233.47,384.20 L 1232.43,385.42 L 1230.19,387.57 L 1229.05,388.59 L 1226.63,390.29 L 1225.40,391.09 L 1222.84,392.31 L 1221.55,392.86 L 1218.90,393.57 L 1214.87,394.00 L 1213.78,394.00 L 1212.20,394.11 L 1211.47,394.21 L 1210.34,394.66 L 1209.79,394.94 L 1208.70,395.93 L 1206.71,398.25 L 1205.76,399.42 L 1203.74,402.11 L 1203.26,402.76 L 1202.41,403.95 L 1201.41,405.42 L 1199.55,408.34 L 1202.75,407.70 L 1203.23,407.60 L 1204.31,407.16 L 1204.86,406.90 L 1206.03,406.17 L 1209.44,403.20 L 1210.13,402.44 L 1211.71,401.11 L 1212.53,400.49 L 1214.36,399.44 L 1215.30,398.95 L 1217.34,398.19 L 1218.39,397.84 L 1220.61,397.36 L 1221.74,397.15 L 1224.11,396.97 L 1225.31,396.91 L 1227.80,397.02 L 1229.06,397.11 L 1231.64,397.53 L 1235.57,398.50 L 1236.58,398.80 L 1238.24,399.34 L 1239.01,399.60 L 1240.23,400.06 L 1240.79,400.29 L 1241.58,400.73 L 1241.93,400.95 L 1242.33,401.39 L 1242.48,401.62 L 1242.51,402.10 L 1242.47,402.35 L 1242.15,402.91 L 1241.95,403.21 L 1241.31,403.89 L 1240.00,405.07 L 1238.89,406.02 L 1236.57,407.71 L 1235.39,408.51 L 1232.95,409.88 L 1231.72,410.53 L 1229.21,411.59 L 1227.95,412.07 L 1225.40,412.80 L 1224.12,413.12 L 1221.58,413.52 L 1220.31,413.67 L 1217.81,413.71 L 1216.56,413.69 L 1214.14,413.38 L 1210.63,412.50 L 1209.72,412.19 L 1208.05,411.74 L 1207.24,411.54 L 1205.73,411.31 L 1201.60,411.42 L 1200.80,411.57 L 1199.59,411.93 L 1199.04,412.14 L 1198.18,412.75 L 1197.78,413.11 L 1197.08,414.13 L 1195.99,416.31 L 1195.48,417.46 L 1194.49,420.08 L 1194.26,420.71 L 1193.88,421.85 L 1193.46,423.25 L 1193.31,423.88 L 1193.17,424.75 L 1193.14,425.13 L 1193.35,425.58 L 1193.50,425.76 L 1194.16,425.93 L 1195.77,426.00 L 1196.59,426.00 L 1198.28,425.51 L 1200.13,424.34 L 1200.60,423.77 L 1201.84,422.75 L 1202.50,422.26 L 1204.05,421.42 L 1204.86,421.03 L 1206.68,420.38 L 1207.61,420.09 L 1209.61,419.65 L 1211.65,419.26 L 1216.02,419.16 L 1217.12,419.20 L 1219.30,419.45 L 1222.50,420.11 L 1223.20,420.30 L 1224.88,420.88 L 1225.75,421.20 L 1227.69,421.99 L 1229.68,422.82 L 1233.85,424.81 L 1234.86,425.31 L 1236.77,426.32 L 1237.70,426.81 L 1239.33,427.76 L 1240.10,428.21 L 1241.32,429.03 L 1242.53,430.03 L 1242.93,430.47 L 1243.30,431.14 L 1243.39,431.47 L 1242.93,432.13 L 1242.75,432.31 L 1242.18,432.72 L 1241.85,432.93 L 1240.97,433.44 L 1240.48,433.71 L 1239.25,434.36 L 1236.96,435.52 L 1234.89,436.56 L 1230.84,438.23 L 1228.84,439.00 L 1224.98,440.11 L 1223.08,440.59 L 1219.46,441.14 L 1217.68,441.35 L 1214.35,441.34 L 1212.72,441.27 L 1209.72,440.71 L 1208.27,440.36 L 1205.66,439.25 L 1204.41,438.63 L 1202.24,436.97 L 1199.53,433.87 L 1199.06,433.15 L 1198.13,432.01 L 1197.67,431.48 L 1196.74,430.71 L 1196.28,430.38 L 1195.33,430.00 L 1194.86,429.86 L 1193.88,429.86 L 1193.38,429.91 L 1192.33,430.30 L 1191.80,430.55 L 1190.68,431.33 L 1190.10,431.77 L 1188.86,432.95 L 1186.87,435.16 L 1186.28,435.86 L 1184.78,437.42 L 1184.00,438.21 L 1182.29,439.77 L 1181.43,440.54 L 1179.71,441.94 L 1177.34,443.64 L 1175.91,444.56 L 1173.48,446.29 L 1172.95,446.69 L 1172.16,447.33 L 1171.51,447.99 L 1171.25,448.41 L 1170.52,448.84 L 1170.14,448.99 L 1169.26,448.90 L 1168.81,448.79 L 1167.88,448.20 L 1167.42,447.84 L 1166.56,446.78 L 1165.96,445.92 L 1165.28,444.43 L 1165.02,443.73 L 1165.03,442.60 L 1165.12,442.10 L 1165.79,441.42 L 1167.54,441.00 L 1168.25,441.00 L 1169.92,440.59 L 1170.78,440.33 L 1172.66,439.48 L 1173.61,439.01 L 1175.56,437.82 L 1176.52,437.20 L 1178.40,435.79 L 1179.31,435.07 L 1180.97,433.55 L 1181.76,432.78 L 1183.07,431.26 L 1183.67,430.51 L 1184.48,429.10 L 1185.00,427.22 L 1185.00,426.44 L 1184.50,424.93 L 1184.18,424.20 L 1183.17,422.94 L 1182.62,422.36 L 1181.29,421.53 L 1179.14,421.00 L 1178.76,421.00 L 1177.71,420.77 L 1177.15,420.62 L 1175.86,420.15 L 1171.82,418.10 L 1170.87,417.50 L 1169.18,416.13 L 1168.37,415.41 L 1166.95,413.76 L 1166.27,412.89 L 1165.09,410.85 L 1164.52,409.78 L 1163.54,407.27 L 1163.07,405.95 L 1162.25,402.89 L 1161.86,401.29 L 1161.19,397.58 L 1160.86,395.64 L 1160.29,391.20 L 1159.52,383.62 L 1158.92,376.73 L 1162.18,377.39 L 1163.27,377.60 L 1165.41,378.26 L 1166.48,378.62 L 1168.56,379.54 L 1169.59,380.03 L 1171.58,381.20 L 1172.56,381.81 L 1174.42,383.20 L 1176.25,384.63 L 1179.40,388.07 L 1180.13,388.96 L 1181.44,390.86 L 1183.12,393.86 L 1183.55,394.75 L 1184.22,396.61 L 1184.53,397.58 L 1185.00,399.83 L 1185.22,401.02 L 1185.54,403.94 L 1185.62,404.73 L 1185.75,406.48 L 1185.93,409.42 L 1186.01,410.93 L 1186.23,413.70 L 1186.35,415.03 L 1186.63,417.25 L 1186.78,418.26 L 1187.08,419.69 L 1187.16,419.99 L 1187.31,420.39 L 1187.52,420.68 L 1187.70,420.74 L 1188.21,420.31 L 1188.48,420.02 L 1189.13,419.02 L 1189.47,418.47 L 1190.19,417.05 L 1190.56,416.31 L 1191.29,414.64 L 1192.01,412.94 L 1193.19,409.46 L 1193.44,408.64 L 1193.78,407.17 L 1194.00,405.40 L 1194.00,404.45 L 1193.42,402.63 L 1191.86,400.40 L 1191.56,400.14 L 1190.88,399.35 L 1190.53,398.92 L 1189.81,397.88 L 1187.88,394.50 L 1187.39,393.44 L 1186.69,390.76 L 1186.38,389.39 L 1186.08,386.66 L 1186.04,386.01 L 1186.03,384.84 L 1186.04,384.28 L 1186.15,383.36 L 1186.22,382.94 L 1186.46,382.36 L 1186.97,382.00 L 1187.10,382.00 L 1187.34,381.73 L 1187.45,381.56 L 1187.62,381.00 L 1187.81,378.61 L 1187.80,378.19 L 1187.97,377.11 L 1188.08,376.54 L 1188.47,375.24 L 1188.90,373.90 L 1190.16,371.06 L 1190.82,369.69 L 1192.19,367.50 L 1192.52,367.04 L 1193.13,366.41 L 1193.89,366.00 L 1194.11,366.00 L 1194.92,366.52 L 1196.29,367.77 L 1197.06,368.62 L 1198.38,370.68 L 1199.00,371.77 L 1200.02,374.21 L 1200.49,375.46 L 1201.20,378.15 L 1201.51,379.52 L 1201.89,382.34 L 1202.04,383.75 L 1202.08,386.57 L 1202.06,387.97 L 1201.75,390.67 L 1201.55,391.99 L 1200.87,394.44 L 1199.43,397.71 L 1198.94,398.55 L 1198.20,399.93 L 1197.87,400.57 L 1197.46,401.53 L 1197.29,401.96 L 1197.19,402.51 L 1197.18,402.73 L 1197.38,402.87 L 1197.51,402.88 L 1197.99,402.60 L 1198.27,402.40 L 1199.03,401.70 L 1199.44,401.30 L 1200.45,400.17 L 1202.25,398.01 L 1203.04,397.02 L 1204.33,395.23 L 1204.92,394.37 L 1205.81,392.84 L 1206.21,392.11 L 1206.70,390.84 L 1207.00,389.22 L 1207.00,388.82 L 1207.12,387.69 L 1207.20,387.08 L 1207.46,385.65 L 1208.57,381.09 L 1208.95,379.80 L 1210.06,377.37 L 1210.68,376.19 L 1212.23,373.99 L 1213.06,372.92 L 1215.01,370.96 L 1216.04,370.02 L 1218.38,368.33 L 1219.59,367.52 L 1222.27,366.11 L 1223.65,365.45 L 1226.65,364.35 L 1228.18,363.84 L 1231.47,363.07 L 1236.68,362.30 L 1237.61,362.21 L 1239.11,362.09 L 1239.81,362.04 L 1240.89,362.04 M 1209.65,422.27 L 1207.40,422.70 L 1206.56,423.03 L 1205.09,423.79 L 1204.65,424.28 L 1204.00,425.34 L 1204.00,425.98 L 1204.04,426.73 L 1204.15,427.00 L 1204.44,427.47 L 1204.71,427.61 L 1205.36,427.85 L 1205.85,427.91 L 1206.97,427.98 L 1207.75,427.98 L 1211.56,427.70 L 1214.15,427.31 L 1215.33,427.03 L 1217.60,426.43 L 1218.47,426.09 L 1219.29,425.75 L 1219.61,425.57 L 1220.19,425.21 L 1220.36,425.04 L 1220.80,424.42 L 1220.89,424.03 L 1220.83,423.84 L 1220.37,423.16 L 1219.78,422.89 L 1218.39,422.40 L 1217.38,422.25 L 1215.18,422.02 L 1213.82,422.02 M 1163.69,387.43 L 1163.24,388.18 L 1163.12,388.87 L 1162.93,390.44 L 1162.95,391.52 L 1163.08,393.87 L 1163.27,395.32 L 1163.74,398.40 L 1164.12,400.20 L 1165.24,404.58 L 1166.10,407.00 L 1166.63,408.05 L 1167.77,410.07 L 1168.50,411.02 L 1170.06,412.91 L 1171.05,413.89 L 1172.84,415.52 L 1173.67,416.09 L 1174.47,416.60 L 1174.80,416.75 L 1175.41,417.00 L 1175.61,417.00 L 1176.90,416.51 L 1177.51,415.78 L 1177.66,415.29 L 1177.87,414.25 L 1177.79,413.70 L 1177.52,412.60 L 1177.17,412.11 L 1176.20,410.63 L 1175.49,409.45 L 1175.11,408.78 L 1173.57,405.91 L 1172.80,404.32 L 1171.26,401.09 L 1170.59,399.51 L 1169.32,396.43 L 1168.87,395.13 L 1167.27,391.05 L 1166.27,389.08 L 1165.83,388.45 L 1164.97,387.43 L 1164.61,387.27 L 1163.94,387.16 M 1220.65,399.27 L 1219.41,399.46 L 1216.33,400.20 L 1214.64,400.91 L 1214.00,401.35 L 1212.86,402.29 L 1212.52,402.83 L 1212.00,403.96 L 1212.00,404.57 L 1212.06,405.36 L 1212.28,405.57 L 1212.87,405.88 L 1213.49,405.86 L 1214.17,405.80 L 1214.61,405.73 L 1215.58,405.55 L 1216.18,405.41 L 1217.47,405.11 L 1218.26,404.91 L 1219.93,404.47 L 1220.92,404.21 L 1223.44,403.45 L 1224.95,402.92 L 1225.56,402.66 L 1226.69,402.14 L 1227.07,401.92 L 1227.67,401.49 L 1227.72,401.33 L 1227.74,400.72 L 1227.55,400.36 L 1227.37,400.20 L 1226.41,399.64 L 1225.65,399.47 L 1223.94,399.20 L 1222.89,399.20 M 1190.38,376.80 L 1189.87,377.07 L 1188.94,377.82 L 1188.51,378.53 L 1188.37,379.04 L 1188.14,380.20 L 1188.08,381.01 L 1188.00,382.79 L 1188.00,383.97 L 1188.30,388.92 L 1188.50,390.42 L 1188.62,391.04 L 1188.88,392.18 L 1189.02,392.54 L 1189.41,393.53 L 1189.59,393.85 L 1189.94,394.37 L 1190.12,394.48 L 1190.50,394.59 L 1190.73,394.50 L 1191.21,394.24 L 1191.52,393.99 L 1192.20,393.00 L 1192.54,391.99 L 1192.66,391.28 L 1192.86,389.71 L 1192.92,388.68 L 1193.00,386.44 L 1193.00,385.04 L 1192.95,382.00 L 1192.87,380.17 L 1192.81,379.41 L 1192.69,378.02 L 1192.61,377.56 L 1192.46,376.79 L 1192.37,376.70 L 1191.37,376.55 M 1222.48,369.28 L 1220.94,369.62 L 1220.09,370.09 L 1218.33,371.22 L 1217.43,371.99 L 1215.64,373.67 L 1214.80,374.64 L 1213.18,376.65 L 1212.50,377.70 L 1211.24,379.82 L 1210.81,380.84 L 1210.11,382.83 L 1210.04,383.70 L 1210.01,384.54 L 1210.08,384.92 L 1210.28,385.64 L 1210.46,385.94 L 1211.04,386.71 L 1211.34,386.84 L 1211.97,386.94 L 1212.33,386.73 L 1213.09,386.13 L 1213.54,385.56 L 1214.50,384.21 L 1215.07,383.25 L 1216.26,381.46 L 1217.27,380.08 L 1217.84,379.35 L 1220.24,376.42 L 1221.36,375.25 L 1223.17,373.23 L 1224.00,372.15 L 1224.24,371.72 L 1224.59,370.94 L 1224.60,370.65 L 1224.51,370.11 L 1224.31,369.91 L 1223.48,369.40 L 1222.84,369.26 Z" fill="rgba(91,152,32,1)"/>
<path d="M 1215.18,422.02 L 1217.38,422.25 L 1218.39,422.40 L 1219.78,422.89 L 1220.37,423.16 L 1220.83,423.84 L 1220.89,424.03 L 1220.80,424.42 L 1220.36,425.04 L 1220.19,425.21 L 1219.61,425.57 L 1219.29,425.75 L 1218.47,426.09 L 1217.60,426.43 L 1215.33,427.03 L 1214.15,427.31 L 1211.56,427.70 L 1207.75,427.98 L 1206.97,427.98 L 1205.85,427.91 L 1205.36,427.85 L 1204.71,427.61 L 1204.44,427.47 L 1204.15,427.00 L 1204.04,426.73 L 1204.00,425.98 L 1204.00,425.34 L 1204.65,424.28 L 1205.09,423.79 L 1206.56,423.03 L 1207.40,422.70 L 1209.65,422.27 L 1213.82,422.02 M 1164.61,387.27 L 1164.97,387.43 L 1165.83,388.45 L 1166.27,389.08 L 1167.27,391.05 L 1168.87,395.13 L 1169.32,396.43 L 1170.59,399.51 L 1171.26,401.09 L 1172.80,404.32 L 1173.57,405.91 L 1175.11,408.78 L 1175.49,409.45 L 1176.20,410.63 L 1177.17,412.11 L 1177.52,412.60 L 1177.79,413.70 L 1177.87,414.25 L 1177.66,415.29 L 1177.51,415.78 L 1176.90,416.51 L 1175.61,417.00 L 1175.41,417.00 L 1174.80,416.75 L 1174.47,416.60 L 1173.67,416.09 L 1172.84,415.52 L 1171.05,413.89 L 1170.06,412.91 L 1168.50,411.02 L 1167.77,410.07 L 1166.63,408.05 L 1166.10,407.00 L 1165.24,404.58 L 1164.12,400.20 L 1163.74,398.40 L 1163.27,395.32 L 1163.08,393.87 L 1162.95,391.52 L 1162.93,390.44 L 1163.12,388.87 L 1163.24,388.18 L 1163.69,387.43 L 1163.94,387.16 M 1223.94,399.20 L 1225.65,399.47 L 1226.41,399.64 L 1227.37,400.20 L 1227.55,400.36 L 1227.74,400.72 L 1227.72,401.33 L 1227.67,401.49 L 1227.07,401.92 L 1226.69,402.14 L 1225.56,402.66 L 1224.95,402.92 L 1223.44,403.45 L 1220.92,404.21 L 1219.93,404.47 L 1218.26,404.91 L 1217.47,405.11 L 1216.18,405.41 L 1215.58,405.55 L 1214.61,405.73 L 1214.17,405.80 L 1213.49,405.86 L 1212.87,405.88 L 1212.28,405.57 L 1212.06,405.36 L 1212.00,404.57 L 1212.00,403.96 L 1212.52,402.83 L 1212.86,402.29 L 1214.00,401.35 L 1214.64,400.91 L 1216.33,400.20 L 1219.41,399.46 L 1220.65,399.27 L 1222.89,399.20 M 1192.37,376.70 L 1192.46,376.79 L 1192.61,377.56 L 1192.69,378.02 L 1192.81,379.41 L 1192.87,380.17 L 1192.95,382.00 L 1193.00,385.04 L 1193.00,386.44 L 1192.92,388.68 L 1192.86,389.71 L 1192.66,391.28 L 1192.54,391.99 L 1192.20,393.00 L 1191.52,393.99 L 1191.21,394.24 L 1190.73,394.50 L 1190.50,394.59 L 1190.12,394.48 L 1189.94,394.37 L 1189.59,393.85 L 1189.41,393.53 L 1189.02,392.54 L 1188.88,392.18 L 1188.62,391.04 L 1188.50,390.42 L 1188.30,388.92 L 1188.00,383.97 L 1188.00,382.79 L 1188.08,381.01 L 1188.14,380.20 L 1188.37,379.04 L 1188.51,378.53 L 1188.94,377.82 L 1189.87,377.07 L 1190.38,376.80 L 1191.37,376.55 M 1223.48,369.40 L 1224.31,369.91 L 1224.51,370.11 L 1224.60,370.65 L 1224.59,370.94 L 1224.24,371.72 L 1224.00,372.15 L 1223.17,373.23 L 1221.36,375.25 L 1220.24,376.42 L 1217.84,379.35 L 1217.27,380.08 L 1216.26,381.46 L 1215.07,383.25 L 1214.50,384.21 L 1213.54,385.56 L 1213.09,386.13 L 1212.33,386.73 L 1211.97,386.94 L 1211.34,386.84 L 1211.04,386.71 L 1210.46,385.94 L 1210.28,385.64 L 1210.08,384.92 L 1210.01,384.54 L 1210.04,383.70 L 1210.11,382.83 L 1210.81,380.84 L 1211.24,379.82 L 1212.50,377.70 L 1213.18,376.65 L 1214.80,374.64 L 1215.64,373.67 L 1217.43,371.99 L 1218.33,371.22 L 1220.09,370.09 L 1220.94,369.62 L 1222.48,369.28 L 1222.84,369.26 Z" fill="rgba(122,176,40,1)"/>
<path d="M 984.00,428.97 L 984.00,427.35 L 984.00,424.38 L 984.01,422.95 L 984.02,420.33 L 984.03,419.07 L 984.07,416.78 L 984.09,415.67 L 984.14,413.67 L 984.21,411.73 L 984.43,408.62 L 984.56,407.17 L 984.95,404.86 L 985.17,403.78 L 985.78,402.04 L 986.11,401.22 L 986.98,399.82 L 987.45,399.14 L 988.63,397.85 L 990.79,395.80 L 991.63,395.04 L 993.39,393.77 L 994.29,393.18 L 996.13,392.23 L 997.06,391.80 L 998.95,391.16 L 999.90,390.88 L 1001.81,390.53 L 1002.77,390.40 L 1004.69,390.34 L 1005.64,390.35 L 1007.53,390.56 L 1008.46,390.70 L 1010.29,391.18 L 1011.19,391.44 L 1012.93,392.17 L 1013.79,392.56 L 1015.42,393.51 L 1016.22,394.02 L 1017.71,395.20 L 1018.44,395.82 L 1019.76,397.21 L 1020.40,397.93 L 1021.53,399.51 L 1022.07,400.33 L 1022.98,402.10 L 1023.40,403.01 L 1024.07,404.96 L 1024.37,405.95 L 1024.75,408.06 L 1024.99,411.38 L 1025.00,412.52 L 1024.69,414.77 L 1024.49,415.89 L 1023.81,418.08 L 1023.42,419.16 L 1022.41,421.24 L 1021.86,422.26 L 1020.54,424.17 L 1019.85,425.10 L 1018.28,426.78 L 1017.46,427.59 L 1015.67,429.00 L 1014.75,429.67 L 1012.78,430.75 L 1009.66,431.95 L 1008.99,432.14 L 1007.82,432.41 L 1007.26,432.52 L 1006.31,432.64 L 1005.40,432.72 L 1004.20,432.41 L 1003.69,432.17 L 1003.20,431.18 L 1003.17,428.90 L 1003.23,428.47 L 1003.49,427.78 L 1003.65,427.46 L 1004.15,426.95 L 1004.43,426.71 L 1005.20,426.35 L 1006.72,425.92 L 1007.62,425.74 L 1009.26,425.20 L 1010.06,424.90 L 1011.51,424.13 L 1012.22,423.72 L 1013.47,422.74 L 1014.07,422.22 L 1015.11,421.04 L 1015.61,420.43 L 1016.43,419.06 L 1016.81,418.35 L 1017.40,416.80 L 1017.66,416.01 L 1018.01,414.31 L 1018.25,411.58 L 1018.26,410.65 L 1018.08,408.90 L 1017.95,408.05 L 1017.50,406.46 L 1017.25,405.69 L 1016.58,404.27 L 1016.21,403.58 L 1015.34,402.34 L 1014.42,401.15 L 1012.10,399.33 L 1010.88,398.52 L 1008.13,397.52 L 1006.73,397.13 L 1003.79,397.01 L 1002.32,397.06 L 999.42,397.89 L 998.71,398.16 L 997.33,398.89 L 996.66,399.28 L 995.37,400.27 L 994.74,400.80 L 993.58,402.05 L 991.99,404.24 L 991.54,404.99 L 990.91,406.62 L 990.78,407.08 L 990.56,408.24 L 990.46,408.87 L 990.32,410.45 L 990.25,411.32 L 990.15,413.49 L 990.11,414.66 L 990.06,417.56 L 990.04,419.12 L 990.02,422.91 L 990.01,423.92 L 990.01,426.13 L 990.00,429.75 L 990.00,452.00 L 987.00,452.00 L 984.00,452.00 L 984.00,428.97 M 29.62,431.79 L 29.08,431.64 L 27.81,431.08 L 27.15,430.77 L 25.77,429.94 L 21.96,426.96 L 21.29,426.29 L 20.16,424.94 L 19.62,424.25 L 18.74,422.73 L 18.33,421.94 L 17.68,420.09 L 17.38,419.12 L 16.92,416.79 L 16.72,415.54 L 16.43,412.57 L 16.31,410.98 L 16.18,407.19 L 16.12,405.18 L 16.11,400.42 L 16.11,399.16 L 16.13,396.43 L 16.19,392.00 L 16.50,371.50 L 27.50,371.50 L 38.50,371.50 L 38.50,374.50 L 38.50,377.50 L 30.69,377.79 L 22.89,378.09 L 23.19,398.53 L 23.50,418.97 L 26.69,422.16 L 27.26,422.72 L 28.39,423.64 L 28.96,424.06 L 30.15,424.73 L 30.76,425.04 L 32.06,425.48 L 34.19,425.93 L 35.19,426.06 L 36.55,426.32 L 37.14,426.46 L 37.84,426.87 L 38.13,427.11 L 38.39,427.84 L 38.50,429.50 L 38.50,430.12 L 38.40,431.03 L 38.33,431.43 L 38.03,431.96 L 37.84,432.20 L 37.27,432.46 L 36.00,432.67 L 35.66,432.69 L 34.72,432.65 L 34.23,432.62 L 33.09,432.48 L 31.94,432.32 M 55.76,431.58 L 54.29,431.05 L 51.92,429.96 L 50.80,429.39 L 48.96,428.05 L 48.08,427.34 L 46.53,425.58 L 44.30,422.26 L 43.74,421.30 L 42.92,419.64 L 42.56,418.83 L 42.07,417.25 L 41.87,416.45 L 41.65,414.67 L 41.55,411.50 L 41.56,409.86 L 41.88,407.04 L 42.11,405.69 L 42.93,403.29 L 43.41,402.12 L 44.80,399.93 L 47.64,396.64 L 48.76,395.51 L 50.93,393.80 L 52.02,393.02 L 54.29,391.92 L 55.46,391.45 L 58.04,390.89 L 62.50,390.56 L 63.80,390.56 L 66.26,390.83 L 67.46,391.02 L 69.72,391.66 L 70.83,392.03 L 72.87,393.03 L 73.87,393.57 L 75.68,394.91 L 76.56,395.62 L 78.13,397.29 L 78.89,398.17 L 80.19,400.15 L 80.81,401.18 L 81.84,403.47 L 83.05,407.23 L 83.29,408.19 L 83.64,409.77 L 83.79,410.51 L 83.91,411.69 L 83.94,412.24 L 83.74,413.08 L 83.60,413.46 L 83.02,414.01 L 82.67,414.25 L 81.63,414.56 L 81.04,414.69 L 79.45,414.82 L 78.58,414.87 L 76.37,414.87 L 72.27,414.78 L 61.50,414.50 L 61.50,411.50 L 61.50,408.50 L 69.25,408.21 L 70.32,408.17 L 72.26,408.02 L 73.19,407.95 L 74.72,407.74 L 75.43,407.64 L 76.39,407.40 L 77.00,407.03 L 77.00,406.84 L 76.77,406.27 L 76.63,405.97 L 76.15,405.24 L 75.62,404.48 L 74.05,402.72 L 73.23,401.84 L 71.41,400.21 L 68.93,398.46 L 68.13,398.05 L 66.44,397.49 L 65.58,397.25 L 63.83,397.05 L 62.94,396.98 L 61.17,397.11 L 60.29,397.21 L 58.56,397.66 L 57.70,397.92 L 56.05,398.67 L 55.24,399.08 L 53.73,400.12 L 52.99,400.67 L 51.66,401.98 L 49.94,404.24 L 49.58,404.81 L 49.03,406.09 L 48.78,406.76 L 48.44,408.19 L 48.15,409.65 L 48.17,412.75 L 48.27,414.28 L 49.07,417.14 L 49.31,417.82 L 49.94,419.04 L 51.08,420.60 L 51.81,421.38 L 53.45,422.75 L 54.29,423.40 L 56.05,424.46 L 56.92,424.94 L 58.61,425.59 L 60.89,426.00 L 61.53,426.00 L 62.50,426.28 L 62.93,426.47 L 63.48,427.13 L 63.71,427.51 L 63.84,428.56 L 63.58,430.56 L 63.40,431.25 L 62.83,432.16 L 62.50,432.54 L 61.47,432.84 L 60.88,432.92 L 59.20,432.63 L 58.27,432.42 M 101.76,432.00 L 100.42,431.60 L 97.94,430.43 L 96.73,429.79 L 94.54,428.20 L 93.48,427.36 L 91.64,425.43 L 90.76,424.43 L 89.30,422.23 L 88.62,421.10 L 87.59,418.71 L 87.14,417.49 L 86.58,414.97 L 86.37,413.70 L 86.33,411.14 L 86.92,407.31 L 87.31,405.85 L 88.47,403.17 L 89.11,401.88 L 90.71,399.56 L 91.56,398.44 L 93.53,396.52 L 94.56,395.61 L 96.85,394.12 L 98.03,393.43 L 100.56,392.41 L 101.85,391.97 L 104.56,391.46 L 105.94,391.27 L 108.77,391.31 L 113.07,392.02 L 113.81,392.22 L 115.34,392.87 L 116.11,393.23 L 117.66,394.17 L 119.21,395.17 L 122.12,397.80 L 123.52,399.18 L 125.78,402.21 L 126.28,402.98 L 127.08,404.50 L 127.93,406.73 L 128.09,407.32 L 128.35,409.23 L 128.47,410.28 L 128.65,412.89 L 128.78,421.73 L 128.50,432.50 L 125.50,432.50 L 122.50,432.50 L 122.00,419.50 L 121.93,417.69 L 121.76,414.59 L 121.67,413.13 L 121.43,410.66 L 121.30,409.50 L 120.96,407.56 L 120.77,406.65 L 120.29,405.16 L 120.02,404.45 L 119.36,403.30 L 119.01,402.75 L 118.13,401.84 L 117.66,401.41 L 116.54,400.65 L 114.54,399.59 L 113.73,399.20 L 112.11,398.66 L 111.30,398.43 L 109.69,398.16 L 108.09,397.97 L 105.02,398.34 L 103.52,398.63 L 100.78,399.85 L 99.46,400.55 L 97.22,402.45 L 96.18,403.48 L 94.61,405.90 L 93.93,407.16 L 93.20,409.93 L 93.08,410.64 L 93.02,412.09 L 93.03,412.82 L 93.24,414.30 L 93.38,415.04 L 93.89,416.54 L 94.99,418.76 L 95.56,419.69 L 97.18,421.47 L 98.03,422.32 L 99.99,423.78 L 100.99,424.45 L 103.00,425.39 L 105.75,426.00 L 106.23,426.00 L 106.90,426.13 L 107.21,426.23 L 107.59,426.64 L 107.75,426.89 L 107.92,427.70 L 108.00,429.50 L 108.00,430.44 L 107.78,431.71 L 107.62,432.25 L 106.90,432.77 L 106.45,432.95 L 105.01,432.83 L 104.59,432.76 L 103.57,432.52 L 103.04,432.38 M 145.50,431.53 L 144.76,431.27 L 143.29,430.51 L 142.55,430.10 L 141.11,429.09 L 139.67,428.01 L 137.07,425.27 L 135.83,423.83 L 133.86,420.63 L 133.42,419.82 L 132.72,418.17 L 131.96,415.72 L 131.54,413.85 L 131.33,410.50 L 131.34,408.88 L 132.03,405.87 L 132.50,404.38 L 134.16,401.48 L 134.63,400.76 L 135.78,399.29 L 137.80,397.03 L 139.14,395.66 L 141.88,393.54 L 143.27,392.58 L 146.15,391.29 L 147.62,390.74 L 150.67,390.27 L 155.46,390.46 L 155.94,390.53 L 157.11,390.85 L 157.72,391.03 L 159.06,391.51 L 160.42,392.03 L 163.19,393.33 L 164.51,393.99 L 166.59,395.28 L 167.02,395.58 L 167.62,396.10 L 168.00,396.73 L 168.00,396.82 L 167.83,397.16 L 167.72,397.36 L 167.36,397.86 L 165.82,399.69 L 163.64,402.01 L 161.33,399.84 L 160.91,399.44 L 159.85,398.78 L 159.29,398.47 L 158.00,397.98 L 156.68,397.53 L 153.65,397.18 L 152.12,397.09 L 149.12,397.48 L 148.39,397.62 L 147.04,398.06 L 145.24,398.94 L 143.79,399.85 L 141.56,402.08 L 140.56,403.25 L 139.22,405.84 L 138.66,407.17 L 138.16,409.96 L 138.01,411.35 L 138.33,414.13 L 138.59,415.50 L 139.68,418.10 L 140.32,419.35 L 142.15,421.57 L 143.16,422.61 L 145.70,424.27 L 150.28,425.92 L 150.96,426.06 L 151.94,426.37 L 152.37,426.54 L 152.92,426.99 L 153.15,427.25 L 153.38,427.99 L 153.50,429.54 L 153.50,430.43 L 153.08,431.65 L 152.79,432.17 L 151.72,432.66 L 151.40,432.74 L 150.63,432.77 L 150.22,432.76 L 149.25,432.61 L 148.73,432.51 L 147.54,432.19 L 146.92,432.01 M 203.71,432.38 L 203.66,432.33 L 203.57,431.99 L 203.52,431.78 L 203.44,431.15 L 203.35,430.45 L 203.21,428.33 L 203.14,427.17 L 203.05,424.33 L 203.00,419.58 L 203.00,418.31 L 202.98,416.11 L 202.97,415.06 L 202.92,413.27 L 202.89,412.42 L 202.81,410.97 L 202.76,410.29 L 202.64,409.13 L 202.50,408.02 L 202.04,406.39 L 201.04,404.30 L 200.61,403.60 L 199.76,402.40 L 199.33,401.82 L 198.43,400.86 L 197.96,400.41 L 196.91,399.66 L 196.36,399.31 L 195.10,398.75 L 194.43,398.48 L 192.87,398.07 L 192.05,397.88 L 190.12,397.58 L 189.10,397.45 L 186.72,397.24 L 182.55,397.00 L 171.50,396.50 L 171.50,383.50 L 171.50,370.50 L 174.50,370.50 L 177.50,370.50 L 177.78,380.13 L 178.07,389.75 L 186.38,390.19 L 187.69,390.26 L 190.09,390.51 L 191.25,390.66 L 193.39,391.08 L 194.43,391.32 L 196.32,391.92 L 197.24,392.25 L 198.92,393.04 L 199.74,393.47 L 201.22,394.47 L 201.95,395.00 L 203.27,396.22 L 203.91,396.86 L 205.09,398.32 L 206.72,400.78 L 207.39,401.91 L 208.28,403.71 L 208.67,404.62 L 209.11,406.73 L 209.20,407.32 L 209.32,408.74 L 209.38,409.49 L 209.44,411.32 L 209.47,412.30 L 209.49,414.68 L 209.50,419.00 L 209.50,432.50 L 206.96,432.80 L 206.26,432.88 L 204.96,432.80 L 204.37,432.72 M 227.76,432.02 L 226.33,431.58 L 223.71,430.34 L 222.45,429.67 L 220.21,428.02 L 219.13,427.14 L 217.30,425.14 L 216.43,424.09 L 215.03,421.79 L 214.39,420.61 L 213.47,418.07 L 213.07,416.78 L 212.65,414.07 L 212.50,412.70 L 212.62,409.88 L 213.43,405.59 L 213.79,404.36 L 214.84,402.07 L 215.42,400.95 L 216.86,398.88 L 217.63,397.89 L 219.40,396.10 L 220.33,395.24 L 222.37,393.78 L 223.41,393.09 L 225.64,391.99 L 226.78,391.48 L 229.14,390.79 L 230.33,390.50 L 232.76,390.25 L 236.40,390.45 L 237.86,390.68 L 240.69,391.61 L 242.08,392.14 L 244.66,393.61 L 245.91,394.41 L 248.13,396.35 L 250.93,399.71 L 251.67,400.83 L 252.92,403.63 L 253.49,405.08 L 254.29,408.02 L 254.62,409.45 L 254.81,411.86 L 254.81,412.40 L 254.68,413.27 L 254.24,414.16 L 254.18,414.22 L 253.85,414.34 L 253.65,414.39 L 253.07,414.49 L 252.43,414.59 L 250.54,414.72 L 249.51,414.78 L 247.03,414.83 L 242.91,414.79 L 232.50,414.50 L 232.50,411.50 L 232.50,408.50 L 240.25,408.21 L 241.32,408.17 L 243.26,408.02 L 244.19,407.95 L 245.72,407.74 L 246.43,407.64 L 247.39,407.40 L 248.00,407.03 L 248.00,406.84 L 247.77,406.27 L 247.63,405.97 L 247.15,405.24 L 246.62,404.48 L 245.05,402.72 L 244.23,401.84 L 242.41,400.21 L 239.93,398.46 L 239.13,398.05 L 237.44,397.49 L 236.58,397.25 L 234.83,397.05 L 233.94,396.98 L 232.17,397.11 L 231.29,397.21 L 229.56,397.66 L 228.70,397.92 L 227.05,398.67 L 226.24,399.08 L 224.73,400.12 L 223.99,400.67 L 222.66,401.98 L 220.94,404.24 L 220.54,404.87 L 219.96,406.07 L 219.71,406.68 L 219.40,407.95 L 219.27,408.61 L 219.19,410.14 L 219.29,412.91 L 219.38,414.09 L 219.62,415.85 L 219.77,416.67 L 220.25,417.96 L 220.54,418.58 L 221.40,419.72 L 223.30,421.63 L 224.29,422.54 L 226.67,424.15 L 227.25,424.50 L 228.33,425.05 L 229.70,425.55 L 230.34,425.69 L 231.41,425.94 L 231.91,426.06 L 232.72,426.29 L 233.46,426.51 L 234.31,427.01 L 234.65,427.29 L 234.88,428.06 L 234.82,429.74 L 234.73,430.51 L 234.22,431.59 L 233.91,432.05 L 232.90,432.56 L 232.33,432.75 L 230.78,432.70 L 229.93,432.61 M 278.00,429.64 L 278.00,428.74 L 278.07,427.56 L 278.14,427.05 L 278.53,426.48 L 278.78,426.24 L 279.73,426.06 L 282.03,426.00 L 283.58,426.00 L 286.36,425.58 L 287.67,425.31 L 289.84,424.44 L 290.82,423.95 L 292.16,422.72 L 292.43,422.39 L 292.78,421.70 L 293.00,420.59 L 293.00,420.13 L 292.85,419.34 L 292.74,418.96 L 292.35,418.30 L 292.13,417.98 L 291.46,417.43 L 291.08,417.17 L 290.09,416.71 L 289.56,416.50 L 288.21,416.13 L 287.49,415.95 L 285.74,415.64 L 284.81,415.50 L 282.62,415.24 L 278.80,414.90 L 276.30,414.70 L 271.88,414.04 L 269.77,413.67 L 266.19,412.67 L 264.51,412.13 L 261.86,410.82 L 261.26,410.47 L 260.25,409.73 L 259.02,408.54 L 258.50,407.90 L 257.88,406.04 L 257.65,405.04 L 257.58,402.81 L 257.62,401.70 L 258.09,399.59 L 259.40,397.12 L 259.88,396.58 L 260.96,395.65 L 261.53,395.21 L 262.83,394.44 L 263.52,394.08 L 265.09,393.47 L 265.91,393.18 L 267.81,392.71 L 268.80,392.49 L 271.08,392.15 L 272.27,392.00 L 274.98,391.78 L 276.39,391.68 L 279.59,391.57 L 285.00,391.50 L 299.50,391.50 L 299.50,394.50 L 299.50,397.50 L 283.40,398.00 L 281.30,398.07 L 277.75,398.21 L 276.07,398.29 L 273.29,398.47 L 271.99,398.57 L 269.89,398.82 L 268.92,398.95 L 267.41,399.29 L 266.72,399.47 L 265.71,399.91 L 265.27,400.15 L 264.67,400.73 L 264.42,401.04 L 264.15,401.78 L 264.00,403.10 L 264.00,403.46 L 264.22,404.13 L 264.37,404.45 L 264.89,405.05 L 265.19,405.33 L 266.01,405.85 L 266.47,406.10 L 267.60,406.55 L 268.20,406.77 L 269.64,407.14 L 270.40,407.32 L 272.15,407.63 L 273.07,407.77 L 275.14,408.01 L 278.60,408.29 L 280.28,408.39 L 283.30,408.71 L 284.76,408.89 L 287.36,409.36 L 288.61,409.61 L 290.81,410.24 L 291.86,410.57 L 293.66,411.37 L 294.52,411.79 L 295.95,412.75 L 296.62,413.26 L 297.68,414.41 L 298.17,415.00 L 298.88,416.34 L 299.58,418.55 L 299.74,419.44 L 299.72,421.14 L 299.65,421.98 L 299.17,423.56 L 298.88,424.34 L 297.98,425.78 L 297.48,426.49 L 296.18,427.77 L 295.48,428.38 L 293.81,429.47 L 292.93,429.99 L 290.91,430.87 L 289.86,431.28 L 287.53,431.93 L 283.69,432.61 L 278.00,433.28 L 278.00,429.64 M 341.76,432.00 L 340.47,431.62 L 338.01,430.46 L 336.81,429.83 L 334.59,428.25 L 333.52,427.40 L 331.63,425.45 L 329.24,422.16 L 328.59,421.05 L 327.71,419.26 L 327.33,418.36 L 326.89,416.25 L 326.80,415.66 L 326.68,414.25 L 326.62,413.49 L 326.56,411.66 L 326.53,410.68 L 326.51,408.31 L 326.50,404.00 L 326.50,390.50 L 329.50,390.50 L 332.50,390.50 L 333.00,404.00 L 333.07,405.82 L 333.22,408.90 L 333.30,410.36 L 333.50,412.79 L 333.61,413.93 L 333.90,415.82 L 334.06,416.71 L 334.48,418.17 L 334.71,418.86 L 335.29,420.01 L 335.61,420.56 L 336.40,421.51 L 336.82,421.97 L 337.85,422.83 L 339.69,424.14 L 340.55,424.70 L 342.80,425.43 L 343.99,425.73 L 346.62,425.94 L 347.94,425.97 L 350.54,425.64 L 353.95,424.52 L 354.82,424.07 L 356.52,422.57 L 357.34,421.74 L 358.78,419.74 L 359.44,418.72 L 360.39,416.59 L 361.00,413.63 L 361.00,413.05 L 361.11,412.23 L 361.19,411.88 L 361.58,411.44 L 361.83,411.26 L 362.64,411.08 L 364.50,411.00 L 365.48,411.00 L 366.74,411.14 L 367.27,411.26 L 367.75,411.92 L 367.82,412.14 L 367.85,412.74 L 367.84,413.07 L 367.71,413.94 L 367.63,414.41 L 367.36,415.58 L 366.83,417.75 L 366.50,419.07 L 365.42,421.52 L 364.82,422.71 L 363.26,424.87 L 362.43,425.91 L 360.48,427.73 L 359.46,428.59 L 357.20,430.01 L 356.04,430.67 L 353.57,431.66 L 352.31,432.09 L 349.70,432.58 L 348.38,432.77 L 345.72,432.72 L 344.39,432.63 M 392.00,429.64 L 392.00,428.74 L 392.07,427.56 L 392.14,427.05 L 392.53,426.48 L 392.78,426.24 L 393.73,426.06 L 396.03,426.00 L 397.58,426.00 L 400.36,425.58 L 401.67,425.31 L 403.84,424.44 L 404.82,423.95 L 406.16,422.72 L 406.43,422.39 L 406.78,421.70 L 407.00,420.59 L 407.00,420.13 L 406.85,419.34 L 406.74,418.96 L 406.35,418.30 L 406.13,417.98 L 405.46,417.43 L 405.08,417.17 L 404.09,416.71 L 403.56,416.50 L 402.21,416.13 L 401.49,415.95 L 399.74,415.64 L 398.81,415.50 L 396.62,415.24 L 392.80,414.90 L 390.33,414.70 L 385.93,414.05 L 383.83,413.67 L 380.25,412.69 L 378.57,412.16 L 375.92,410.87 L 375.32,410.54 L 374.32,409.81 L 373.12,408.66 L 372.60,408.03 L 371.98,406.13 L 371.74,405.12 L 371.66,402.85 L 371.68,401.72 L 372.13,399.59 L 373.39,397.12 L 373.87,396.59 L 374.96,395.65 L 375.53,395.21 L 376.83,394.44 L 377.51,394.08 L 379.09,393.47 L 379.91,393.18 L 381.81,392.71 L 382.80,392.49 L 385.07,392.15 L 386.26,392.00 L 388.97,391.78 L 390.39,391.68 L 393.59,391.57 L 399.00,391.50 L 413.50,391.50 L 413.50,394.50 L 413.50,397.50 L 397.40,398.00 L 395.30,398.07 L 391.75,398.21 L 390.07,398.29 L 387.29,398.47 L 385.99,398.57 L 383.89,398.82 L 382.92,398.95 L 381.41,399.29 L 380.72,399.47 L 379.71,399.91 L 379.27,400.15 L 378.67,400.73 L 378.42,401.04 L 378.15,401.78 L 378.00,403.10 L 378.00,403.46 L 378.22,404.13 L 378.37,404.45 L 378.89,405.05 L 379.19,405.33 L 380.01,405.85 L 380.47,406.10 L 381.60,406.55 L 382.20,406.77 L 383.64,407.14 L 384.40,407.32 L 386.15,407.63 L 387.07,407.77 L 389.14,408.01 L 392.60,408.29 L 394.28,408.39 L 397.30,408.71 L 398.76,408.89 L 401.36,409.36 L 402.61,409.61 L 404.81,410.24 L 405.86,410.57 L 407.66,411.37 L 408.52,411.79 L 409.95,412.75 L 410.62,413.26 L 411.68,414.41 L 412.17,415.00 L 412.88,416.34 L 413.58,418.55 L 413.74,419.44 L 413.72,421.14 L 413.65,421.98 L 413.17,423.56 L 412.88,424.34 L 411.98,425.78 L 411.48,426.49 L 410.18,427.77 L 409.48,428.38 L 407.81,429.47 L 406.93,429.99 L 404.91,430.87 L 403.86,431.28 L 401.53,431.93 L 397.69,432.61 L 392.00,433.28 L 392.00,429.64 M 472.71,432.38 L 472.66,432.33 L 472.57,431.99 L 472.52,431.78 L 472.44,431.15 L 472.35,430.45 L 472.21,428.33 L 472.14,427.17 L 472.05,424.33 L 472.00,419.58 L 472.00,418.31 L 471.98,416.11 L 471.97,415.06 L 471.92,413.27 L 471.89,412.42 L 471.81,410.97 L 471.76,410.29 L 471.64,409.13 L 471.50,408.02 L 471.04,406.39 L 470.04,404.30 L 469.61,403.60 L 468.76,402.40 L 468.33,401.82 L 467.43,400.86 L 466.96,400.41 L 465.91,399.66 L 465.36,399.31 L 464.10,398.75 L 463.43,398.48 L 461.87,398.07 L 461.05,397.88 L 459.12,397.58 L 458.10,397.45 L 455.72,397.24 L 451.55,397.00 L 440.50,396.50 L 440.50,383.50 L 440.50,370.50 L 443.50,370.50 L 446.50,370.50 L 446.78,380.13 L 447.07,389.75 L 455.38,390.19 L 456.69,390.26 L 459.09,390.51 L 460.25,390.66 L 462.39,391.08 L 463.43,391.32 L 465.32,391.92 L 466.24,392.25 L 467.92,393.04 L 468.74,393.47 L 470.22,394.47 L 470.95,395.00 L 472.27,396.22 L 472.91,396.86 L 474.09,398.32 L 475.72,400.78 L 476.39,401.91 L 477.28,403.71 L 477.67,404.62 L 478.11,406.73 L 478.20,407.32 L 478.32,408.74 L 478.38,409.49 L 478.44,411.32 L 478.47,412.30 L 478.49,414.68 L 478.50,419.00 L 478.50,432.50 L 475.96,432.80 L 475.26,432.88 L 473.96,432.80 L 473.37,432.72 M 502.00,429.50 L 502.00,428.72 L 502.08,427.64 L 502.15,427.17 L 502.44,426.58 L 502.62,426.34 L 503.23,426.11 L 504.63,426.00 L 504.99,426.00 L 505.91,425.84 L 506.38,425.74 L 507.43,425.42 L 510.46,424.02 L 511.43,423.42 L 513.06,421.94 L 513.82,421.16 L 515.02,419.37 L 515.57,418.45 L 516.34,416.46 L 516.66,415.44 L 516.99,413.32 L 517.09,412.26 L 516.96,410.10 L 516.84,409.03 L 516.25,406.93 L 515.90,405.89 L 514.84,403.93 L 512.71,401.24 L 511.95,400.49 L 510.68,399.40 L 510.06,398.91 L 508.82,398.26 L 508.18,397.97 L 506.69,397.62 L 503.82,397.28 L 502.79,397.21 L 501.10,397.19 L 500.30,397.21 L 498.93,397.40 L 498.28,397.53 L 497.07,397.97 L 495.24,398.94 L 494.30,399.53 L 492.52,401.16 L 491.67,402.03 L 490.21,404.00 L 489.55,405.00 L 488.61,407.01 L 488.00,409.75 L 488.00,410.21 L 487.88,410.87 L 487.79,411.17 L 487.42,411.56 L 487.20,411.73 L 486.52,411.90 L 485.06,412.00 L 484.25,412.00 L 482.85,411.78 L 482.55,411.71 L 482.08,411.54 L 481.68,411.25 L 481.62,411.15 L 481.61,410.57 L 481.62,410.23 L 481.74,409.26 L 482.52,405.54 L 482.83,404.35 L 483.81,402.10 L 484.36,400.99 L 485.78,398.95 L 486.53,397.96 L 488.30,396.18 L 489.23,395.32 L 491.28,393.85 L 492.34,393.15 L 494.60,392.04 L 495.74,391.53 L 498.14,390.82 L 499.34,390.52 L 501.80,390.27 L 505.46,390.46 L 506.79,390.67 L 509.30,391.41 L 510.52,391.83 L 512.78,392.96 L 513.88,393.57 L 515.86,395.05 L 516.81,395.83 L 518.48,397.61 L 519.28,398.54 L 520.60,400.60 L 521.22,401.66 L 522.17,403.94 L 522.60,405.11 L 523.14,407.60 L 523.45,411.50 L 523.44,412.77 L 523.17,415.20 L 522.99,416.39 L 522.39,418.63 L 522.05,419.73 L 521.13,421.77 L 520.63,422.76 L 519.42,424.57 L 518.78,425.45 L 517.28,427.02 L 516.50,427.77 L 514.73,429.08 L 513.82,429.69 L 511.80,430.71 L 508.50,431.90 L 507.75,432.10 L 506.49,432.43 L 505.90,432.57 L 504.94,432.76 L 504.49,432.84 L 503.79,432.88 L 503.47,432.89 L 502.99,432.77 L 502.55,432.61 L 502.17,431.74 L 502.03,431.21 M 536.31,412.06 L 534.92,409.18 L 532.43,403.88 L 531.85,402.62 L 530.77,400.28 L 530.25,399.14 L 529.34,397.11 L 528.91,396.13 L 528.19,394.46 L 527.86,393.68 L 527.35,392.43 L 527.13,391.86 L 526.87,391.10 L 526.77,390.56 L 526.93,390.41 L 527.99,390.16 L 530.14,390.00 L 530.99,390.00 L 532.28,390.35 L 532.60,390.51 L 533.23,391.04 L 533.54,391.36 L 534.23,392.29 L 534.59,392.82 L 535.41,394.27 L 535.85,395.07 L 536.88,397.15 L 537.43,398.27 L 538.74,401.08 L 541.12,406.23 L 541.86,407.85 L 543.25,410.79 L 543.92,412.20 L 545.07,414.53 L 545.61,415.59 L 546.39,417.05 L 546.56,417.35 L 546.80,417.74 L 547.02,417.98 L 547.05,417.99 L 547.26,417.71 L 547.38,417.53 L 547.75,416.93 L 547.95,416.58 L 548.46,415.68 L 548.73,415.19 L 549.36,414.03 L 550.02,412.81 L 551.61,409.74 L 554.26,404.50 L 555.19,402.64 L 556.93,399.26 L 557.78,397.64 L 559.24,394.97 L 559.57,394.35 L 560.17,393.32 L 560.45,392.83 L 560.92,392.07 L 561.14,391.72 L 561.46,391.28 L 561.75,391.00 L 561.79,391.00 L 562.10,391.45 L 562.28,391.74 L 562.83,392.72 L 563.13,393.26 L 563.89,394.69 L 564.30,395.45 L 565.23,397.24 L 565.71,398.18 L 566.78,400.28 L 567.33,401.35 L 568.49,403.67 L 569.67,406.03 L 572.17,411.08 L 573.41,413.61 L 575.81,418.56 L 576.39,419.76 L 577.47,422.04 L 578.00,423.15 L 578.96,425.19 L 579.42,426.17 L 580.22,427.90 L 580.59,428.72 L 581.18,430.06 L 581.45,430.67 L 581.80,431.55 L 582.01,432.25 L 582.01,432.35 L 581.74,432.54 L 581.57,432.63 L 581.02,432.78 L 578.66,433.00 L 577.83,433.00 L 576.63,432.76 L 576.34,432.65 L 575.78,432.22 L 575.49,431.96 L 574.88,431.18 L 574.57,430.73 L 573.83,429.47 L 573.44,428.78 L 572.50,426.94 L 572.00,425.94 L 570.79,423.42 L 568.56,418.75 L 561.80,404.50 L 554.67,418.75 L 553.69,420.71 L 551.85,424.28 L 550.97,425.99 L 549.46,428.81 L 549.11,429.46 L 548.51,430.56 L 548.22,431.07 L 547.75,431.88 L 547.54,432.24 L 547.23,432.71 L 546.97,433.00 L 546.93,433.00 L 546.65,432.57 L 546.48,432.29 L 545.95,431.35 L 545.67,430.82 L 544.93,429.41 L 544.53,428.66 L 543.61,426.85 L 543.12,425.90 L 542.04,423.75 L 541.48,422.63 L 540.28,420.19 L 539.04,417.69 M 622.76,431.60 L 621.29,431.07 L 618.90,429.96 L 617.79,429.38 L 615.97,428.08 L 615.12,427.39 L 613.69,425.75 L 611.79,422.74 L 611.26,421.73 L 610.54,419.85 L 610.39,419.33 L 610.15,418.09 L 610.04,417.42 L 609.87,415.74 L 609.80,414.83 L 609.69,412.54 L 609.65,411.30 L 609.59,408.20 L 609.58,407.37 L 609.56,405.52 L 609.56,404.56 L 609.55,402.45 L 609.54,401.36 L 609.53,398.95 L 609.53,395.00 L 609.50,371.50 L 620.82,371.22 L 632.13,370.93 L 631.82,374.22 L 631.50,377.50 L 623.75,377.79 L 616.00,378.08 L 616.00,397.09 L 616.00,399.58 L 616.03,403.77 L 616.05,405.75 L 616.13,409.03 L 616.19,410.57 L 616.36,413.09 L 616.47,414.27 L 616.76,416.18 L 616.92,417.07 L 617.35,418.52 L 617.59,419.20 L 618.19,420.34 L 620.76,423.28 L 621.03,423.52 L 621.87,424.03 L 622.32,424.28 L 623.43,424.75 L 627.11,425.81 L 628.12,425.98 L 629.50,426.29 L 630.10,426.46 L 630.82,426.90 L 631.11,427.15 L 631.38,427.89 L 631.50,429.53 L 631.50,430.14 L 631.40,431.03 L 631.32,431.43 L 631.02,431.97 L 630.84,432.21 L 630.26,432.49 L 629.00,432.73 L 628.66,432.76 L 627.73,432.71 L 627.25,432.67 L 626.14,432.49 L 625.00,432.29 M 655.00,429.50 L 655.00,428.71 L 655.08,427.62 L 655.15,427.15 L 655.45,426.57 L 655.64,426.33 L 656.28,426.10 L 657.75,425.99 L 658.58,425.99 L 660.18,425.68 L 660.97,425.48 L 662.46,424.80 L 663.19,424.42 L 664.54,423.42 L 665.19,422.88 L 666.36,421.60 L 666.92,420.93 L 667.87,419.41 L 668.31,418.62 L 669.01,416.90 L 669.32,416.02 L 669.74,414.15 L 669.99,411.21 L 669.99,410.02 L 669.88,408.26 L 669.79,407.44 L 669.37,406.11 L 669.11,405.47 L 668.22,404.17 L 666.16,401.81 L 665.31,400.89 L 663.95,399.61 L 663.30,399.04 L 662.06,398.31 L 661.42,397.99 L 659.91,397.63 L 656.91,397.29 L 655.86,397.21 L 654.14,397.19 L 653.32,397.21 L 651.95,397.40 L 651.29,397.52 L 650.07,397.96 L 648.24,398.94 L 647.30,399.53 L 645.52,401.16 L 644.67,402.03 L 643.21,404.00 L 642.55,405.00 L 641.61,407.01 L 641.00,409.75 L 641.00,410.21 L 640.88,410.87 L 640.79,411.17 L 640.42,411.56 L 640.19,411.73 L 639.50,411.91 L 638.00,412.00 L 637.34,412.00 L 636.41,411.91 L 636.01,411.83 L 635.51,411.51 L 635.30,411.30 L 635.10,410.62 L 635.00,409.07 L 635.00,407.74 L 635.57,405.14 L 635.94,403.86 L 637.18,401.41 L 637.86,400.21 L 639.64,398.00 L 640.58,396.93 L 642.79,395.04 L 643.93,394.15 L 646.45,392.68 L 647.74,392.01 L 650.46,391.04 L 651.84,390.63 L 654.65,390.27 L 658.83,390.48 L 660.15,390.72 L 662.61,391.50 L 663.81,391.94 L 666.02,393.09 L 667.10,393.71 L 669.04,395.20 L 669.97,395.98 L 671.60,397.77 L 672.38,398.69 L 673.67,400.74 L 674.28,401.79 L 675.20,404.05 L 675.62,405.21 L 676.15,407.66 L 676.45,411.50 L 676.44,412.77 L 676.17,415.20 L 675.99,416.39 L 675.39,418.63 L 675.05,419.73 L 674.13,421.77 L 673.63,422.76 L 672.42,424.57 L 671.78,425.45 L 670.28,427.02 L 669.50,427.77 L 667.73,429.08 L 666.82,429.69 L 664.80,430.71 L 661.50,431.90 L 660.75,432.10 L 659.49,432.43 L 658.90,432.57 L 657.94,432.76 L 657.49,432.84 L 656.79,432.88 L 656.47,432.89 L 655.99,432.77 L 655.55,432.61 L 655.17,431.74 L 655.03,431.21 M 703.00,402.07 L 703.00,371.00 L 706.01,371.00 L 709.03,371.00 L 708.76,401.75 L 708.50,432.50 L 705.75,432.82 L 703.00,433.13 L 703.00,402.07 M 713.00,412.00 L 713.00,390.87 L 715.75,391.18 L 718.50,391.50 L 718.50,412.00 L 718.50,432.50 L 715.75,432.82 L 713.00,433.13 L 713.00,412.00 M 731.23,412.47 L 730.56,411.14 L 729.36,408.72 L 728.77,407.54 L 727.72,405.41 L 727.22,404.38 L 726.32,402.53 L 725.89,401.64 L 725.14,400.05 L 724.79,399.29 L 724.18,397.94 L 723.90,397.29 L 723.44,396.16 L 723.01,395.09 L 722.55,393.53 L 722.39,392.84 L 722.44,391.94 L 722.52,391.56 L 723.04,391.16 L 723.35,391.01 L 724.30,390.98 L 726.18,391.17 L 726.65,391.24 L 727.61,391.89 L 727.86,392.11 L 728.41,392.75 L 728.69,393.10 L 729.32,394.02 L 729.65,394.53 L 730.39,395.79 L 730.78,396.47 L 731.66,398.12 L 732.13,398.99 L 733.18,401.07 L 735.00,404.72 L 735.89,406.54 L 737.59,409.86 L 738.40,411.44 L 739.82,414.07 L 740.15,414.67 L 740.73,415.69 L 741.01,416.17 L 741.47,416.92 L 741.68,417.26 L 741.99,417.70 L 742.28,417.97 L 742.39,417.98 L 742.75,417.71 L 742.95,417.53 L 743.44,416.96 L 745.13,414.50 L 745.53,413.82 L 746.27,412.81 L 746.63,412.35 L 747.37,411.73 L 747.75,411.46 L 748.60,411.16 L 750.10,411.00 L 750.90,411.00 L 752.15,411.30 L 752.41,411.39 L 752.77,411.62 L 753.00,412.02 L 753.00,412.12 L 752.89,412.52 L 752.82,412.75 L 752.57,413.39 L 752.30,414.07 L 751.43,415.98 L 750.96,417.00 L 749.81,419.37 L 749.21,420.58 L 747.93,423.12 L 747.28,424.38 L 746.00,426.79 L 745.38,427.95 L 744.26,429.95 L 743.74,430.87 L 742.93,432.16 L 742.76,432.43 L 742.49,432.78 L 742.23,433.00 L 742.18,433.00 L 741.87,432.58 L 741.68,432.31 L 741.13,431.38 L 740.82,430.86 L 740.05,429.48 L 739.64,428.74 L 738.69,426.97 L 738.19,426.04 L 737.08,423.93 L 736.50,422.84 L 735.27,420.44 L 734.00,417.99 M 772.84,432.04 L 771.70,431.69 L 769.61,430.81 L 768.59,430.35 L 766.76,429.25 L 765.88,428.67 L 764.32,427.36 L 763.57,426.67 L 762.28,425.13 L 761.67,424.34 L 760.64,422.58 L 760.16,421.68 L 759.41,419.72 L 759.07,418.71 L 758.58,416.53 L 758.17,413.02 L 758.07,411.18 L 758.22,408.08 L 758.36,406.60 L 759.08,404.00 L 759.51,402.74 L 760.91,400.35 L 763.86,396.66 L 764.87,395.58 L 766.92,393.89 L 767.96,393.13 L 770.21,392.03 L 771.37,391.55 L 773.98,390.96 L 778.50,390.58 L 779.71,390.56 L 781.68,390.66 L 782.62,390.73 L 784.25,391.06 L 785.05,391.26 L 786.62,391.90 L 789.22,393.28 L 790.74,394.17 L 793.36,396.48 L 794.60,397.70 L 796.58,400.53 L 797.47,401.99 L 798.67,405.12 L 799.45,409.93 L 799.50,414.50 L 788.75,414.78 L 778.00,415.07 L 778.00,411.53 L 778.00,408.00 L 785.50,408.00 L 786.53,408.00 L 788.41,407.95 L 789.31,407.92 L 790.80,407.83 L 791.48,407.77 L 792.41,407.64 L 793.00,407.40 L 793.00,407.04 L 792.43,405.81 L 792.08,405.15 L 791.01,403.60 L 790.43,402.82 L 789.13,401.33 L 787.24,399.57 L 786.75,399.21 L 785.60,398.61 L 785.01,398.33 L 783.68,397.89 L 782.32,397.50 L 779.32,397.21 L 777.82,397.15 L 774.92,397.55 L 774.23,397.69 L 772.94,398.11 L 771.24,398.94 L 769.79,399.85 L 767.56,402.08 L 766.56,403.25 L 765.22,405.84 L 764.66,407.17 L 764.16,409.96 L 764.01,411.35 L 764.33,414.13 L 764.59,415.50 L 765.68,418.10 L 766.32,419.35 L 768.15,421.57 L 769.16,422.61 L 771.70,424.27 L 776.28,425.92 L 776.96,426.06 L 777.94,426.37 L 778.37,426.54 L 778.92,426.99 L 779.15,427.25 L 779.38,427.99 L 779.50,429.54 L 779.50,430.36 L 779.13,431.52 L 778.88,432.02 L 777.96,432.57 L 777.43,432.77 L 775.90,432.74 L 775.05,432.65 M 834.72,412.72 L 833.38,409.93 L 830.94,404.74 L 830.36,403.50 L 829.29,401.18 L 828.78,400.05 L 827.85,398.01 L 827.41,397.04 L 826.67,395.34 L 826.32,394.54 L 825.77,393.25 L 825.52,392.66 L 825.20,391.82 L 825.00,391.15 L 825.00,390.94 L 825.21,390.62 L 825.35,390.47 L 825.82,390.28 L 826.10,390.20 L 826.84,390.13 L 828.25,390.19 L 829.03,390.26 L 830.22,390.66 L 830.51,390.82 L 831.08,391.31 L 831.38,391.60 L 832.01,392.43 L 832.33,392.89 L 833.09,394.16 L 833.49,394.85 L 834.44,396.65 L 834.94,397.62 L 836.16,400.05 L 838.35,404.50 L 845.19,418.50 L 852.10,404.75 L 853.05,402.86 L 854.85,399.41 L 855.72,397.77 L 857.23,395.04 L 857.58,394.42 L 858.20,393.36 L 858.49,392.86 L 858.98,392.08 L 859.20,391.74 L 859.54,391.28 L 859.85,391.00 L 859.90,391.00 L 860.21,391.44 L 860.40,391.73 L 860.96,392.70 L 861.26,393.24 L 862.03,394.65 L 862.43,395.40 L 863.36,397.18 L 863.84,398.11 L 864.90,400.19 L 865.45,401.26 L 866.60,403.55 L 867.77,405.89 L 870.25,410.91 L 871.48,413.43 L 873.85,418.35 L 874.42,419.55 L 875.50,421.82 L 876.02,422.93 L 876.97,424.97 L 877.43,425.96 L 878.21,427.69 L 878.58,428.51 L 879.17,429.87 L 879.43,430.49 L 879.78,431.39 L 880.00,432.14 L 880.00,432.28 L 879.74,432.50 L 879.58,432.60 L 879.05,432.74 L 876.75,432.81 L 875.97,432.74 L 874.78,432.34 L 874.49,432.18 L 873.91,431.69 L 873.62,431.40 L 872.99,430.57 L 872.66,430.10 L 871.90,428.84 L 871.50,428.15 L 870.55,426.35 L 870.04,425.38 L 868.82,422.95 L 866.63,418.50 L 859.75,404.50 L 852.87,418.50 L 851.93,420.42 L 850.14,423.96 L 849.28,425.64 L 847.79,428.46 L 847.44,429.11 L 846.83,430.22 L 846.54,430.73 L 846.06,431.56 L 845.84,431.93 L 845.51,432.42 L 845.21,432.76 L 845.16,432.78 L 844.86,432.40 L 844.68,432.14 L 844.14,431.26 L 843.85,430.76 L 843.11,429.43 L 842.72,428.71 L 841.81,426.98 L 841.33,426.08 L 840.27,424.01 L 839.73,422.94 L 838.55,420.59 L 837.35,418.17 M 885.00,412.00 L 885.00,391.00 L 888.00,391.00 L 891.00,391.00 L 891.00,412.00 L 891.00,433.00 L 888.00,433.00 L 885.00,433.00 L 885.00,412.00 M 908.76,432.00 L 907.45,431.61 L 905.01,430.48 L 903.83,429.86 L 901.73,428.34 L 900.72,427.53 L 899.03,425.69 L 897.07,422.65 L 896.59,421.66 L 895.94,419.69 L 895.80,419.14 L 895.57,417.84 L 895.47,417.14 L 895.32,415.40 L 895.25,414.46 L 895.15,412.12 L 895.11,410.85 L 895.05,407.74 L 895.03,406.07 L 895.01,402.01 L 895.01,400.93 L 895.00,398.57 L 895.00,394.68 L 895.00,371.00 L 906.06,371.00 L 917.13,371.00 L 916.81,374.25 L 916.50,377.50 L 908.75,377.79 L 901.00,378.08 L 901.00,396.57 L 901.00,398.06 L 901.02,400.81 L 901.03,402.15 L 901.08,404.61 L 901.11,405.80 L 901.20,407.98 L 901.24,409.04 L 901.37,410.97 L 901.52,412.83 L 901.96,415.87 L 902.21,417.28 L 902.92,419.51 L 903.31,420.54 L 904.34,422.12 L 904.89,422.84 L 906.29,423.89 L 907.03,424.37 L 908.85,425.05 L 912.11,425.80 L 913.12,425.97 L 914.51,426.29 L 915.11,426.47 L 915.87,426.93 L 916.18,427.20 L 916.52,428.00 L 916.81,429.77 L 916.89,430.51 L 916.91,431.52 L 916.89,431.96 L 916.64,432.48 L 916.47,432.70 L 915.83,432.87 L 914.31,432.91 L 913.54,432.89 L 911.52,432.61 L 910.52,432.45 M 951.85,420.17 L 951.81,418.64 L 951.73,416.09 L 951.69,414.89 L 951.59,412.92 L 951.54,411.99 L 951.41,410.49 L 951.34,409.79 L 951.15,408.64 L 950.95,407.56 L 950.27,406.00 L 948.70,403.67 L 948.16,402.96 L 947.13,401.76 L 946.62,401.19 L 945.58,400.24 L 945.05,399.80 L 943.93,399.08 L 943.35,398.74 L 942.06,398.22 L 941.39,397.98 L 939.86,397.62 L 939.06,397.46 L 937.20,397.25 L 936.23,397.16 L 933.97,397.05 L 930.05,397.00 L 920.00,397.00 L 920.00,383.50 L 920.00,370.00 L 923.00,370.00 L 926.00,370.00 L 926.00,379.87 L 926.00,389.75 L 934.25,390.20 L 936.64,390.33 L 940.72,390.96 L 942.66,391.34 L 945.94,392.51 L 947.48,393.16 L 950.07,394.91 L 953.30,398.24 L 954.27,399.54 L 955.66,402.08 L 956.28,403.39 L 957.09,406.45 L 957.27,407.27 L 957.53,409.14 L 957.65,410.11 L 957.81,412.32 L 957.88,413.48 L 957.96,416.12 L 958.00,420.65 L 958.00,433.00 L 955.10,433.00 L 952.20,433.00 L 951.85,420.17 M 1042.62,431.55 L 1041.38,431.10 L 1038.75,429.49 L 1037.44,428.59 L 1034.96,426.37 L 1033.77,425.21 L 1031.81,422.75 L 1031.37,422.14 L 1030.67,420.93 L 1029.90,419.21 L 1029.44,417.81 L 1029.06,414.53 L 1028.96,412.84 L 1029.25,409.33 L 1029.47,407.60 L 1030.36,404.34 L 1030.62,403.56 L 1031.24,402.14 L 1032.32,400.26 L 1033.09,399.15 L 1034.90,397.23 L 1035.84,396.32 L 1037.94,394.81 L 1039.03,394.10 L 1041.36,393.01 L 1042.55,392.52 L 1045.03,391.87 L 1046.29,391.60 L 1048.86,391.40 L 1050.15,391.35 L 1052.73,391.62 L 1054.02,391.82 L 1056.54,392.57 L 1060.18,394.26 L 1061.27,394.90 L 1063.15,396.20 L 1064.04,396.87 L 1065.55,398.29 L 1066.26,399.02 L 1067.44,400.65 L 1067.99,401.50 L 1068.86,403.41 L 1069.27,404.42 L 1069.88,406.71 L 1070.15,407.92 L 1070.54,410.68 L 1070.70,412.13 L 1070.89,415.45 L 1071.00,421.15 L 1071.00,433.00 L 1068.10,433.00 L 1065.21,433.00 L 1064.82,420.75 L 1064.77,419.03 L 1064.61,416.04 L 1064.52,414.61 L 1064.29,412.15 L 1064.15,410.99 L 1063.80,408.99 L 1063.61,408.04 L 1063.13,406.43 L 1062.87,405.66 L 1062.22,404.36 L 1061.87,403.73 L 1061.04,402.66 L 1060.59,402.15 L 1059.54,401.24 L 1057.70,399.96 L 1056.91,399.47 L 1055.17,398.78 L 1054.29,398.48 L 1052.43,398.15 L 1051.49,398.02 L 1049.58,398.03 L 1048.62,398.07 L 1046.73,398.40 L 1045.79,398.60 L 1043.99,399.24 L 1043.10,399.60 L 1041.46,400.53 L 1040.67,401.03 L 1039.27,402.24 L 1037.51,404.35 L 1036.83,405.38 L 1035.97,407.56 L 1035.61,408.66 L 1035.35,410.91 L 1035.29,412.03 L 1035.59,414.26 L 1035.80,415.36 L 1036.62,417.46 L 1037.09,418.49 L 1038.38,420.37 L 1039.08,421.28 L 1040.80,422.85 L 1041.71,423.59 L 1043.82,424.76 L 1047.36,425.94 L 1048.03,426.08 L 1048.98,426.38 L 1049.40,426.55 L 1049.93,427.00 L 1050.16,427.26 L 1050.38,427.99 L 1050.50,429.54 L 1050.50,430.43 L 1050.08,431.65 L 1049.79,432.17 L 1048.73,432.66 L 1048.10,432.82 L 1046.29,432.62 L 1045.78,432.52 L 1044.61,432.21 L 1044.00,432.03 M 1074.00,412.00 L 1074.00,391.00 L 1077.00,391.00 L 1080.00,391.00 L 1080.00,412.00 L 1080.00,433.00 L 1077.00,433.00 L 1074.00,433.00 L 1074.00,412.00 M 1118.85,420.20 L 1118.82,418.92 L 1118.74,416.69 L 1118.70,415.62 L 1118.60,413.77 L 1118.55,412.88 L 1118.43,411.37 L 1118.36,410.65 L 1118.21,409.42 L 1118.05,408.25 L 1117.60,406.58 L 1116.70,404.66 L 1116.18,403.87 L 1114.94,402.49 L 1114.29,401.83 L 1112.83,400.73 L 1112.08,400.21 L 1110.45,399.40 L 1109.62,399.03 L 1107.86,398.51 L 1106.98,398.30 L 1105.16,398.10 L 1104.24,398.04 L 1102.40,398.16 L 1101.49,398.27 L 1099.68,398.73 L 1097.06,399.83 L 1096.15,400.32 L 1094.42,401.84 L 1093.58,402.67 L 1092.16,404.63 L 1091.51,405.64 L 1090.59,407.75 L 1090.00,410.73 L 1090.00,411.20 L 1089.87,411.88 L 1089.78,412.18 L 1089.40,412.57 L 1089.17,412.74 L 1088.45,412.91 L 1086.87,413.00 L 1086.09,413.00 L 1085.07,412.93 L 1084.64,412.86 L 1084.20,412.43 L 1084.03,412.15 L 1084.01,411.09 L 1084.25,408.48 L 1084.36,407.51 L 1084.78,405.67 L 1085.02,404.77 L 1085.70,403.07 L 1086.06,402.24 L 1086.96,400.69 L 1087.43,399.93 L 1088.53,398.55 L 1089.66,397.20 L 1092.43,395.03 L 1093.88,394.03 L 1097.12,392.62 L 1098.78,392.01 L 1102.29,391.43 L 1104.06,391.25 L 1107.64,391.57 L 1109.42,391.85 L 1112.87,393.15 L 1113.71,393.54 L 1115.34,394.52 L 1117.67,396.28 L 1118.43,396.95 L 1119.72,398.24 L 1120.34,398.89 L 1121.36,400.21 L 1121.85,400.89 L 1122.64,402.35 L 1123.01,403.10 L 1123.59,404.78 L 1123.85,405.65 L 1124.25,407.64 L 1124.43,408.68 L 1124.68,411.08 L 1124.78,412.34 L 1124.91,415.24 L 1124.98,420.25 L 1125.00,433.00 L 1122.10,433.00 L 1119.20,433.00 L 1118.85,420.20 M 753.64,360.22 L 753.60,360.17 L 753.68,359.77 L 753.74,359.53 L 753.99,358.78 L 754.14,358.36 L 754.55,357.31 L 754.77,356.74 L 755.32,355.42 L 755.90,354.04 L 757.40,350.65 L 760.03,344.97 L 760.98,342.98 L 762.71,339.22 L 763.53,337.41 L 764.90,334.27 L 765.22,333.54 L 765.75,332.26 L 766.00,331.65 L 766.40,330.64 L 766.57,330.18 L 766.81,329.49 L 766.96,328.87 L 766.96,328.76 L 766.82,328.25 L 766.73,327.96 L 766.42,327.12 L 766.25,326.66 L 765.78,325.53 L 765.53,324.93 L 764.93,323.55 L 764.30,322.12 L 762.71,318.70 L 760.00,313.07 L 759.04,311.12 L 757.28,307.53 L 756.45,305.82 L 755.06,302.93 L 754.74,302.27 L 754.20,301.13 L 753.95,300.60 L 753.55,299.75 L 753.37,299.36 L 753.14,298.83 L 753.00,298.45 L 753.00,298.39 L 753.26,298.28 L 753.42,298.22 L 753.96,298.13 L 756.26,298.00 L 757.07,298.00 L 758.27,298.28 L 758.56,298.41 L 759.15,298.88 L 759.45,299.16 L 760.12,300.03 L 760.46,300.52 L 761.29,301.89 L 761.72,302.65 L 762.79,304.65 L 763.36,305.73 L 764.74,308.46 L 767.27,313.51 L 775.00,329.02 L 767.38,344.26 L 766.33,346.36 L 764.33,350.24 L 763.36,352.09 L 761.66,355.24 L 761.27,355.96 L 760.56,357.21 L 760.23,357.80 L 759.67,358.75 L 759.41,359.18 L 759.01,359.78 L 758.63,360.23 L 758.25,360.48 L 757.30,360.78 L 756.81,360.90 L 755.80,360.96 L 755.31,360.96 L 754.46,360.77 L 754.08,360.65 M 907.45,358.59 L 906.45,358.16 L 904.45,356.70 L 903.47,355.91 L 901.73,354.01 L 900.92,353.03 L 899.76,351.06 L 899.52,350.58 L 899.20,349.67 L 899.00,348.42 L 899.00,347.99 L 899.19,347.29 L 899.32,346.97 L 899.72,346.49 L 900.16,346.07 L 901.47,345.89 L 902.16,345.91 L 903.66,346.61 L 905.68,348.64 L 906.14,349.34 L 907.40,350.55 L 908.08,351.12 L 909.70,352.07 L 910.55,352.51 L 912.43,353.17 L 913.40,353.47 L 915.44,353.84 L 916.47,353.99 L 918.56,354.05 L 919.61,354.04 L 921.65,353.78 L 922.66,353.61 L 924.55,353.01 L 927.10,351.71 L 927.80,351.24 L 928.98,350.32 L 929.54,349.86 L 930.46,348.87 L 930.89,348.36 L 931.58,347.20 L 931.90,346.59 L 932.40,345.15 L 932.62,344.38 L 932.95,342.56 L 933.09,341.59 L 933.29,339.28 L 933.37,338.05 L 933.45,335.14 L 933.50,330.00 L 933.50,327.99 L 933.44,324.56 L 933.39,322.93 L 933.20,320.19 L 933.09,318.89 L 932.74,316.71 L 932.54,315.69 L 931.99,313.98 L 931.68,313.17 L 930.88,311.82 L 930.45,311.18 L 929.36,310.08 L 928.78,309.55 L 927.36,308.59 L 924.82,307.19 L 923.79,306.67 L 922.22,305.99 L 921.49,305.71 L 920.24,305.45 L 919.62,305.37 L 918.33,305.48 L 915.91,306.02 L 914.90,306.30 L 913.05,307.09 L 912.16,307.53 L 910.58,308.63 L 909.83,309.21 L 908.54,310.56 L 907.93,311.26 L 906.95,312.82 L 906.50,313.63 L 905.86,315.36 L 905.58,316.25 L 905.30,318.12 L 905.20,319.07 L 905.29,321.03 L 905.89,324.02 L 906.21,325.09 L 907.41,327.19 L 908.08,328.22 L 909.81,330.07 L 910.71,330.94 L 912.73,332.31 L 915.83,333.58 L 917.03,333.85 L 918.66,334.27 L 919.37,334.49 L 920.22,334.96 L 920.56,335.22 L 920.87,335.93 L 921.00,337.47 L 921.00,338.03 L 920.89,338.81 L 920.80,339.15 L 920.40,339.57 L 920.15,339.75 L 919.33,339.92 L 917.46,340.00 L 916.22,340.00 L 913.81,339.57 L 912.62,339.29 L 910.37,338.35 L 909.28,337.82 L 907.24,336.43 L 906.26,335.68 L 904.50,333.90 L 903.65,332.97 L 902.21,330.85 L 901.54,329.76 L 900.48,327.38 L 900.01,326.16 L 899.38,323.56 L 899.00,319.51 L 899.00,318.11 L 899.34,315.51 L 899.55,314.25 L 900.29,311.91 L 900.71,310.78 L 901.80,308.72 L 902.38,307.73 L 903.78,305.96 L 904.51,305.11 L 906.17,303.64 L 907.02,302.94 L 908.88,301.77 L 909.83,301.23 L 911.85,300.38 L 912.88,299.99 L 915.01,299.47 L 916.08,299.25 L 918.27,299.06 L 919.37,299.01 L 921.58,299.17 L 922.68,299.29 L 924.85,299.81 L 925.92,300.11 L 928.01,301.00 L 929.03,301.48 L 930.99,302.74 L 931.94,303.42 L 933.71,305.07 L 934.57,305.94 L 936.11,307.98 L 938.10,311.50 L 938.48,312.32 L 939.04,314.09 L 939.28,315.03 L 939.60,317.44 L 939.67,318.10 L 939.78,319.65 L 939.83,320.46 L 939.89,322.35 L 939.92,323.34 L 939.95,325.63 L 939.98,329.60 L 939.98,331.93 L 939.89,336.00 L 939.82,337.94 L 939.55,341.32 L 939.40,342.93 L 938.94,345.69 L 938.68,347.01 L 937.99,349.25 L 937.62,350.32 L 936.67,352.14 L 936.16,353.00 L 934.92,354.47 L 934.26,355.17 L 932.70,356.39 L 929.96,358.02 L 929.38,358.32 L 927.86,358.81 L 927.05,359.04 L 925.17,359.40 L 923.23,359.73 L 918.79,359.99 L 916.57,360.04 L 912.37,359.73 L 911.38,359.61 L 909.62,359.27 L 908.79,359.08 M 1025.00,357.00 L 1025.00,356.35 L 1025.09,355.43 L 1025.17,355.03 L 1025.48,354.52 L 1025.67,354.31 L 1026.31,354.10 L 1027.75,354.00 L 1028.63,354.00 L 1030.61,353.45 L 1031.62,353.11 L 1033.67,352.00 L 1034.67,351.39 L 1036.50,349.88 L 1038.70,347.34 L 1039.09,346.74 L 1039.65,345.14 L 1039.78,344.67 L 1039.99,343.46 L 1040.09,342.80 L 1040.25,341.14 L 1040.32,340.25 L 1040.44,338.01 L 1040.50,336.80 L 1040.60,333.86 L 1040.64,332.29 L 1040.72,328.52 L 1040.83,321.80 L 1041.16,299.00 L 1044.08,299.00 L 1047.00,299.00 L 1047.00,321.35 L 1047.00,322.79 L 1046.99,325.43 L 1046.99,326.72 L 1046.97,329.09 L 1046.95,331.40 L 1046.87,335.26 L 1046.82,337.09 L 1046.65,340.11 L 1046.56,341.54 L 1046.29,343.89 L 1046.15,345.00 L 1045.76,346.85 L 1045.55,347.73 L 1045.01,349.23 L 1042.76,353.27 L 1042.12,354.20 L 1040.23,355.88 L 1039.21,356.69 L 1036.80,358.02 L 1035.56,358.63 L 1032.92,359.47 L 1029.04,360.00 L 1028.08,360.00 L 1026.80,359.93 L 1026.24,359.87 L 1025.59,359.56 L 1025.32,359.37 L 1025.09,358.67 L 1025.01,358.25 M 48.00,312.00 L 48.00,284.00 L 32.50,284.00 L 17.00,284.00 L 17.00,281.00 L 17.00,278.00 L 36.00,278.00 L 55.00,278.00 L 55.00,309.00 L 55.00,340.00 L 51.50,340.00 L 48.00,340.00 L 48.00,312.00 M 57.00,319.50 L 57.00,299.00 L 60.50,299.00 L 64.00,299.00 L 64.00,319.50 L 64.00,340.00 L 60.50,340.00 L 57.00,340.00 L 57.00,319.50 M 97.00,327.23 L 97.00,325.38 L 96.93,322.18 L 96.89,320.65 L 96.71,318.04 L 96.60,316.80 L 96.28,314.70 L 96.10,313.70 L 95.61,312.03 L 95.34,311.24 L 94.66,309.92 L 94.29,309.29 L 93.38,308.23 L 92.89,307.73 L 91.73,306.86 L 89.68,305.67 L 88.91,305.29 L 87.67,304.78 L 87.09,304.57 L 86.04,304.39 L 85.53,304.34 L 84.45,304.47 L 82.52,304.99 L 81.45,305.35 L 79.53,306.58 L 78.61,307.27 L 77.06,309.08 L 76.33,310.04 L 75.25,312.30 L 74.27,316.05 L 74.14,316.98 L 73.89,318.24 L 73.75,318.79 L 73.31,319.43 L 73.05,319.69 L 72.21,319.91 L 70.28,320.00 L 66.82,320.00 L 67.53,315.75 L 67.74,314.50 L 68.37,312.17 L 68.71,311.03 L 69.60,308.92 L 70.08,307.90 L 71.22,306.04 L 71.81,305.15 L 73.18,303.56 L 73.88,302.80 L 75.45,301.51 L 76.26,300.90 L 78.01,299.91 L 78.91,299.46 L 80.82,298.81 L 83.87,298.24 L 85.17,298.11 L 87.84,298.36 L 89.17,298.56 L 91.76,299.41 L 93.03,299.91 L 95.37,301.29 L 98.39,303.88 L 100.28,305.96 L 103.75,302.91 L 104.80,301.99 L 106.94,300.53 L 108.02,299.87 L 110.19,298.92 L 111.28,298.51 L 113.46,298.08 L 114.54,297.92 L 116.68,297.99 L 117.75,298.09 L 119.83,298.66 L 120.86,299.01 L 122.85,300.09 L 123.83,300.69 L 125.69,302.27 L 128.33,305.18 L 129.20,306.33 L 130.52,308.93 L 130.82,309.63 L 131.32,311.15 L 131.56,311.95 L 131.95,313.71 L 132.13,314.62 L 132.41,316.67 L 132.54,317.74 L 132.73,320.12 L 132.81,321.35 L 132.91,324.12 L 132.98,328.75 L 133.00,340.00 L 129.50,340.00 L 126.00,340.00 L 126.00,327.45 L 126.00,325.77 L 125.96,322.89 L 125.94,321.53 L 125.82,319.22 L 125.75,318.12 L 125.54,316.26 L 125.42,315.38 L 125.08,313.88 L 124.89,313.17 L 124.39,311.93 L 124.12,311.33 L 123.44,310.24 L 120.60,307.08 L 120.01,306.53 L 118.72,305.71 L 118.07,305.35 L 116.70,304.92 L 116.01,304.75 L 114.61,304.70 L 113.92,304.71 L 112.53,305.01 L 111.85,305.21 L 110.52,305.86 L 109.87,306.22 L 108.66,307.20 L 108.07,307.73 L 107.01,309.03 L 105.65,311.33 L 105.33,311.99 L 104.86,313.60 L 104.65,314.48 L 104.35,316.75 L 104.29,317.37 L 104.19,318.78 L 104.14,319.52 L 104.08,321.20 L 104.05,322.07 L 104.02,324.05 L 104.00,327.40 L 104.00,340.00 L 100.50,340.00 L 97.00,340.00 L 97.00,327.23 M 148.50,338.61 L 148.09,338.43 L 147.05,337.78 L 146.50,337.42 L 145.31,336.50 L 141.84,333.25 L 141.05,332.37 L 139.74,330.53 L 139.13,329.59 L 138.16,327.65 L 137.72,326.68 L 137.09,324.68 L 136.82,323.68 L 136.51,321.65 L 136.39,320.64 L 136.39,318.62 L 136.42,317.61 L 136.71,315.62 L 136.88,314.63 L 137.44,312.71 L 137.75,311.76 L 138.56,309.94 L 139.00,309.04 L 140.06,307.34 L 140.62,306.52 L 141.90,304.98 L 142.57,304.23 L 144.07,302.89 L 144.84,302.24 L 146.54,301.12 L 147.41,300.59 L 149.28,299.71 L 150.24,299.31 L 152.29,298.73 L 153.33,298.47 L 155.52,298.21 L 158.97,298.19 L 160.26,298.28 L 162.71,298.79 L 163.92,299.09 L 166.19,299.99 L 167.29,300.48 L 169.34,301.75 L 170.33,302.42 L 172.12,304.02 L 172.98,304.86 L 174.48,306.76 L 175.20,307.74 L 176.39,309.92 L 176.94,311.04 L 177.79,313.46 L 178.63,317.33 L 179.27,322.00 L 167.57,322.00 L 155.87,322.00 L 156.18,319.25 L 156.26,318.57 L 156.50,317.67 L 156.68,317.28 L 157.47,316.82 L 157.73,316.73 L 158.43,316.58 L 158.81,316.52 L 159.82,316.42 L 160.36,316.38 L 161.73,316.31 L 164.25,316.21 L 165.32,316.17 L 167.26,316.04 L 168.18,315.97 L 169.72,315.79 L 170.42,315.70 L 171.38,315.51 L 171.99,315.21 L 171.99,315.04 L 171.83,314.54 L 171.72,314.27 L 171.37,313.61 L 170.99,312.93 L 169.85,311.33 L 169.25,310.53 L 167.94,309.03 L 166.11,307.37 L 164.96,306.56 L 162.52,305.50 L 161.29,305.06 L 158.79,304.69 L 157.55,304.59 L 155.10,304.87 L 153.90,305.09 L 151.62,305.96 L 150.51,306.46 L 148.52,307.87 L 147.57,308.64 L 145.97,310.53 L 145.24,311.53 L 144.16,313.86 L 143.25,317.78 L 143.15,318.77 L 143.17,320.63 L 143.22,321.54 L 143.52,323.24 L 143.71,324.07 L 144.28,325.60 L 144.61,326.35 L 145.46,327.71 L 145.92,328.37 L 147.04,329.55 L 147.63,330.12 L 149.02,331.12 L 149.74,331.60 L 151.40,332.42 L 154.17,333.44 L 155.05,333.70 L 156.35,334.18 L 156.93,334.43 L 157.72,334.97 L 158.07,335.26 L 158.48,335.98 L 158.82,337.35 L 158.89,337.97 L 158.89,338.80 L 158.86,339.17 L 158.51,339.59 L 158.27,339.77 L 157.40,339.91 L 155.32,339.96 L 154.27,339.95 L 151.74,339.55 L 150.50,339.30 M 216.50,338.59 L 215.60,338.19 L 213.94,337.23 L 213.14,336.73 L 211.68,335.59 L 210.28,334.40 L 208.08,331.58 L 207.09,330.11 L 205.73,326.86 L 205.15,325.20 L 204.64,321.72 L 204.50,319.97 L 204.86,316.45 L 205.14,314.71 L 206.38,311.35 L 207.12,309.71 L 209.26,306.71 L 209.85,305.99 L 211.21,304.65 L 213.50,302.82 L 214.05,302.44 L 215.39,301.69 L 216.08,301.33 L 217.57,300.67 L 218.32,300.36 L 219.78,299.87 L 221.75,299.40 L 222.81,299.23 L 224.20,299.07 L 224.79,299.03 L 225.46,299.22 L 225.73,299.38 L 225.93,300.07 L 226.00,301.85 L 226.00,302.49 L 225.89,303.45 L 225.81,303.88 L 225.48,304.50 L 225.27,304.77 L 224.64,305.16 L 223.25,305.62 L 222.28,305.85 L 220.49,306.47 L 219.62,306.80 L 218.05,307.60 L 217.30,308.02 L 215.96,309.00 L 215.32,309.51 L 214.21,310.65 L 213.69,311.24 L 212.83,312.54 L 212.43,313.21 L 211.83,314.66 L 211.56,315.40 L 211.21,316.98 L 211.01,319.50 L 211.01,320.85 L 211.52,323.35 L 211.85,324.56 L 212.95,326.74 L 213.57,327.79 L 215.15,329.58 L 215.99,330.43 L 217.94,331.77 L 218.96,332.39 L 221.18,333.22 L 222.32,333.57 L 224.71,333.83 L 225.92,333.88 L 228.36,333.51 L 231.98,332.15 L 232.89,331.66 L 234.39,330.78 L 235.09,330.34 L 236.21,329.38 L 236.74,328.87 L 237.56,327.62 L 237.93,326.94 L 238.50,325.19 L 238.76,324.23 L 239.13,321.75 L 239.30,320.40 L 239.53,316.98 L 239.58,316.06 L 239.67,314.00 L 239.72,312.93 L 239.79,310.57 L 239.83,309.34 L 239.90,306.64 L 240.00,302.18 L 240.50,279.50 L 243.75,279.19 L 247.00,278.87 L 246.99,300.19 L 246.99,303.17 L 246.91,308.85 L 246.86,311.60 L 246.68,316.43 L 246.63,317.56 L 246.53,319.58 L 246.47,320.54 L 246.34,322.17 L 246.28,322.93 L 246.14,324.12 L 245.93,325.32 L 245.77,325.90 L 245.24,327.16 L 244.94,327.79 L 244.18,329.11 L 243.37,330.44 L 241.26,333.05 L 240.16,334.31 L 237.76,336.45 L 237.17,336.94 L 235.99,337.75 L 234.28,338.65 L 233.77,338.87 L 232.51,339.21 L 231.84,339.37 L 230.33,339.61 L 228.78,339.82 L 225.33,339.91 L 223.61,339.91 L 220.36,339.57 L 219.59,339.46 L 218.22,339.16 L 217.57,339.00 M 270.00,337.13 L 270.00,336.49 L 270.09,335.55 L 270.16,335.14 L 270.43,334.60 L 270.60,334.37 L 271.12,334.12 L 272.25,334.00 L 272.56,334.00 L 273.38,333.84 L 273.82,333.74 L 274.80,333.41 L 277.76,332.01 L 278.55,331.52 L 279.93,330.42 L 280.59,329.85 L 281.69,328.61 L 282.22,327.97 L 283.06,326.61 L 283.46,325.92 L 284.05,324.47 L 284.58,323.01 L 284.93,319.96 L 284.98,318.43 L 284.42,315.43 L 284.03,313.97 L 282.62,311.28 L 281.82,309.99 L 279.64,307.85 L 279.05,307.36 L 277.73,306.53 L 277.05,306.14 L 275.57,305.52 L 274.80,305.25 L 273.15,304.89 L 270.50,304.67 L 269.58,304.67 L 267.77,304.95 L 266.87,305.13 L 265.14,305.75 L 264.29,306.10 L 262.69,307.00 L 261.91,307.48 L 260.50,308.62 L 259.82,309.21 L 258.65,310.54 L 258.10,311.23 L 257.23,312.69 L 256.84,313.44 L 256.32,315.01 L 256.00,317.40 L 256.00,317.98 L 255.89,318.78 L 255.80,319.13 L 255.41,319.57 L 255.16,319.75 L 254.34,319.92 L 252.45,320.00 L 248.91,320.00 L 249.57,316.25 L 249.78,315.01 L 250.73,312.30 L 251.27,310.94 L 252.70,308.27 L 253.46,306.97 L 255.15,304.71 L 257.75,302.20 L 258.65,301.57 L 260.50,300.54 L 261.43,300.07 L 263.32,299.33 L 264.27,299.00 L 266.19,298.54 L 267.15,298.35 L 269.07,298.16 L 270.99,298.04 L 274.72,298.55 L 276.56,298.93 L 279.98,300.37 L 281.64,301.20 L 284.57,303.46 L 285.96,304.69 L 288.20,307.69 L 288.71,308.49 L 289.57,310.19 L 289.97,311.06 L 290.59,312.92 L 290.87,313.87 L 291.23,315.86 L 291.45,319.00 L 291.45,320.37 L 291.12,323.00 L 290.91,324.29 L 290.19,326.73 L 289.78,327.91 L 288.69,330.10 L 288.11,331.17 L 286.69,333.08 L 285.94,334.00 L 284.21,335.60 L 283.32,336.35 L 281.33,337.59 L 280.31,338.15 L 278.08,338.99 L 274.52,339.75 L 273.39,339.88 L 271.91,339.99 L 271.28,340.02 L 270.57,339.80 L 270.29,339.64 L 270.07,338.93 L 270.00,338.50 M 307.00,338.88 L 305.86,338.43 L 303.49,336.78 L 302.31,335.85 L 300.10,333.51 L 299.04,332.29 L 297.28,329.59 L 295.45,325.52 L 294.96,323.87 L 294.52,320.70 L 294.39,319.13 L 294.69,316.09 L 294.93,314.58 L 295.97,311.63 L 298.37,307.25 L 299.44,305.68 L 301.75,303.24 L 302.96,302.12 L 305.68,300.52 L 307.11,299.82 L 310.40,298.99 L 316.16,298.50 L 317.62,298.50 L 319.80,298.60 L 320.81,298.68 L 322.42,299.03 L 323.20,299.24 L 324.67,299.95 L 327.16,301.54 L 328.44,302.44 L 330.68,304.63 L 331.74,305.78 L 333.49,308.39 L 334.30,309.74 L 335.50,312.69 L 336.64,317.37 L 337.27,322.00 L 326.14,322.00 L 315.00,322.00 L 315.00,319.00 L 315.00,316.00 L 322.50,316.00 L 323.53,316.00 L 325.41,315.96 L 326.31,315.93 L 327.80,315.84 L 328.48,315.79 L 329.41,315.66 L 330.00,315.45 L 330.00,314.94 L 329.40,313.52 L 329.02,312.77 L 327.85,311.13 L 327.21,310.31 L 325.72,308.77 L 323.39,306.93 L 322.45,306.35 L 320.58,305.54 L 319.65,305.19 L 317.81,304.80 L 316.89,304.66 L 315.10,304.65 L 314.21,304.69 L 312.51,305.03 L 311.67,305.24 L 310.07,305.89 L 309.29,306.25 L 307.83,307.17 L 307.12,307.66 L 305.83,308.81 L 305.21,309.41 L 304.11,310.75 L 303.60,311.44 L 302.73,312.94 L 302.33,313.70 L 301.71,315.31 L 301.44,316.13 L 301.11,317.82 L 300.98,318.67 L 300.97,320.41 L 301.00,321.27 L 301.32,323.01 L 301.53,323.87 L 302.22,325.57 L 302.61,326.41 L 303.70,328.03 L 305.82,330.33 L 306.09,330.59 L 306.94,331.14 L 307.40,331.43 L 308.52,332.00 L 312.17,333.44 L 313.05,333.70 L 314.35,334.18 L 314.93,334.43 L 315.72,334.97 L 316.07,335.26 L 316.48,335.98 L 316.82,337.35 L 316.89,337.97 L 316.89,338.81 L 316.86,339.17 L 316.51,339.59 L 316.28,339.76 L 315.40,339.90 L 313.32,339.94 L 312.27,339.92 L 309.89,339.60 L 309.31,339.51 L 308.27,339.27 L 307.78,339.15 M 359.00,337.28 L 359.00,336.55 L 359.11,335.57 L 359.21,335.14 L 359.77,334.61 L 360.13,334.38 L 361.44,334.09 L 361.83,334.02 L 362.80,333.90 L 364.60,333.70 L 366.15,333.54 L 368.72,332.92 L 369.91,332.57 L 371.70,331.59 L 372.49,331.06 L 373.42,329.78 L 373.79,327.56 L 373.74,327.18 L 373.45,326.49 L 373.28,326.16 L 372.74,325.56 L 372.43,325.27 L 371.60,324.75 L 371.15,324.51 L 370.01,324.06 L 369.40,323.85 L 367.92,323.47 L 367.13,323.29 L 365.28,322.97 L 364.31,322.81 L 362.07,322.54 L 358.24,322.16 L 356.71,322.03 L 354.00,321.72 L 352.69,321.55 L 350.39,321.15 L 349.29,320.93 L 347.37,320.42 L 346.45,320.15 L 344.87,319.53 L 344.12,319.20 L 342.85,318.43 L 342.25,318.03 L 341.26,317.12 L 340.80,316.64 L 340.05,315.57 L 339.16,313.75 L 338.87,313.00 L 338.52,311.83 L 338.37,311.27 L 338.30,310.34 L 338.30,309.88 L 338.51,308.98 L 339.15,307.43 L 339.56,306.60 L 340.51,305.15 L 341.02,304.46 L 342.22,303.30 L 342.87,302.75 L 344.42,301.84 L 345.24,301.41 L 347.23,300.73 L 348.28,300.41 L 350.78,299.93 L 352.11,299.72 L 355.22,299.41 L 356.85,299.28 L 360.66,299.12 L 367.25,299.02 L 381.00,299.00 L 381.00,301.88 L 381.00,304.76 L 365.64,305.17 L 364.09,305.21 L 361.40,305.30 L 360.12,305.35 L 357.90,305.45 L 356.85,305.50 L 355.07,305.63 L 354.22,305.69 L 352.80,305.84 L 352.13,305.92 L 351.01,306.11 L 350.48,306.21 L 349.61,306.44 L 347.64,307.31 L 346.92,307.79 L 345.78,309.05 L 345.54,309.36 L 345.21,309.97 L 345.00,310.78 L 345.00,311.16 L 345.19,311.83 L 345.33,312.16 L 345.80,312.75 L 346.07,313.04 L 346.83,313.55 L 347.25,313.79 L 348.33,314.23 L 348.91,314.44 L 350.31,314.81 L 351.06,314.99 L 352.81,315.30 L 353.73,315.45 L 355.85,315.70 L 359.45,316.03 L 361.23,316.16 L 364.38,316.51 L 365.89,316.70 L 368.54,317.16 L 369.81,317.41 L 371.99,318.01 L 373.03,318.33 L 374.79,319.09 L 375.62,319.49 L 376.99,320.42 L 377.63,320.91 L 378.65,322.03 L 379.11,322.62 L 379.81,323.95 L 380.54,326.19 L 380.74,327.10 L 380.78,328.82 L 380.75,329.66 L 380.34,331.24 L 380.08,332.01 L 379.25,333.44 L 378.79,334.13 L 377.55,335.37 L 376.89,335.96 L 375.29,337.00 L 374.44,337.49 L 372.49,338.30 L 371.47,338.67 L 369.19,339.23 L 365.44,339.76 L 359.00,340.27 L 359.00,337.28 M 419.00,327.75 L 419.00,326.45 L 418.98,324.22 L 418.97,323.15 L 418.92,321.34 L 418.89,320.48 L 418.81,319.02 L 418.77,318.32 L 418.64,317.15 L 418.50,316.04 L 418.04,314.40 L 417.04,312.30 L 416.37,311.19 L 414.81,309.39 L 414.00,308.56 L 412.18,307.32 L 411.23,306.77 L 409.13,306.08 L 405.67,305.67 L 404.73,305.67 L 402.93,305.88 L 402.06,306.02 L 400.41,306.48 L 399.60,306.75 L 398.12,307.46 L 397.40,307.85 L 396.09,308.79 L 395.46,309.29 L 394.34,310.46 L 393.81,311.07 L 392.91,312.44 L 392.49,313.15 L 391.82,314.72 L 391.08,317.28 L 390.96,317.87 L 390.65,318.80 L 390.48,319.22 L 390.05,319.85 L 389.81,320.13 L 389.22,320.51 L 388.10,320.83 L 387.19,320.96 L 385.93,320.82 L 385.39,320.66 L 384.82,319.84 L 384.71,319.59 L 384.62,318.93 L 384.60,318.57 L 384.66,317.69 L 384.71,317.22 L 384.91,316.11 L 385.37,314.15 L 385.63,313.15 L 386.33,311.30 L 386.70,310.40 L 387.62,308.74 L 388.11,307.93 L 389.22,306.46 L 389.80,305.74 L 391.08,304.47 L 392.41,303.24 L 395.46,301.39 L 397.04,300.58 L 400.46,299.58 L 402.20,299.20 L 405.78,299.11 L 407.57,299.18 L 411.12,300.02 L 412.88,300.57 L 416.20,302.41 L 417.00,302.93 L 418.54,304.17 L 420.70,306.32 L 421.77,307.54 L 423.34,310.01 L 424.03,311.30 L 424.95,314.37 L 425.15,315.20 L 425.45,317.09 L 425.58,318.07 L 425.77,320.32 L 425.85,321.49 L 425.94,324.16 L 425.99,328.75 L 426.00,340.00 L 422.50,340.00 L 419.00,340.00 L 419.00,327.75 M 462.50,338.58 L 461.54,338.15 L 459.76,337.05 L 458.89,336.45 L 457.29,335.04 L 456.51,334.30 L 455.11,332.59 L 453.27,329.72 L 452.89,329.02 L 452.35,327.24 L 452.23,326.73 L 452.04,325.44 L 451.95,324.74 L 451.82,322.99 L 451.75,322.05 L 451.66,319.72 L 451.62,318.47 L 451.57,315.43 L 451.55,313.80 L 451.52,309.92 L 451.51,303.00 L 451.50,279.50 L 462.75,279.22 L 474.00,278.93 L 474.00,281.97 L 474.00,285.00 L 466.00,285.00 L 458.00,285.00 L 458.00,304.75 L 458.00,307.01 L 458.02,310.80 L 458.02,312.59 L 458.06,315.54 L 458.08,316.93 L 458.16,319.18 L 458.20,320.23 L 458.32,321.91 L 458.39,322.70 L 458.58,323.94 L 458.68,324.52 L 458.93,325.47 L 460.03,327.81 L 460.55,328.68 L 462.10,330.24 L 462.94,330.98 L 464.93,332.21 L 465.96,332.76 L 468.16,333.52 L 471.47,334.00 L 472.00,334.00 L 472.77,334.11 L 473.11,334.19 L 473.54,334.55 L 473.72,334.76 L 473.91,335.46 L 474.00,337.00 L 474.00,337.72 L 473.91,338.68 L 473.83,339.09 L 473.40,339.57 L 473.12,339.76 L 472.13,339.92 L 469.75,339.96 L 468.58,339.95 L 465.87,339.54 L 465.21,339.41 L 464.00,339.10 L 463.43,338.94 M 532.00,327.65 L 532.00,326.25 L 531.99,323.89 L 531.98,322.78 L 531.93,320.91 L 531.91,320.03 L 531.82,318.58 L 531.78,317.89 L 531.64,316.75 L 531.48,315.68 L 530.96,314.13 L 529.75,311.99 L 529.20,311.18 L 528.18,309.82 L 527.67,309.17 L 526.66,308.10 L 526.14,307.60 L 525.05,306.78 L 524.49,306.40 L 523.23,305.81 L 522.57,305.53 L 521.04,305.11 L 520.24,304.92 L 518.35,304.64 L 517.36,304.52 L 515.02,304.34 L 510.92,304.15 L 499.94,303.78 L 500.22,291.14 L 500.50,278.50 L 503.75,278.19 L 507.00,277.87 L 507.00,287.94 L 507.00,298.00 L 514.68,298.00 L 516.96,298.00 L 520.89,298.44 L 522.77,298.74 L 526.03,299.81 L 527.58,300.44 L 530.29,302.21 L 533.91,305.71 L 534.89,306.90 L 536.36,309.50 L 537.02,310.87 L 537.93,314.18 L 538.12,315.07 L 538.42,317.07 L 538.56,318.11 L 538.76,320.44 L 538.84,321.65 L 538.94,324.37 L 539.00,328.94 L 539.00,340.00 L 535.50,340.00 L 532.00,340.00 L 532.00,327.65 M 553.44,338.59 L 552.85,338.33 L 551.66,337.61 L 551.06,337.21 L 549.87,336.23 L 548.68,335.20 L 546.47,332.62 L 545.42,331.27 L 543.72,328.37 L 542.12,324.11 L 541.74,322.34 L 541.62,318.88 L 541.67,317.17 L 542.33,313.92 L 542.75,312.33 L 544.11,309.38 L 544.87,307.95 L 546.84,305.40 L 547.89,304.19 L 550.37,302.15 L 551.67,301.20 L 554.59,299.77 L 556.09,299.13 L 559.36,298.40 L 564.55,298.21 L 565.79,298.32 L 568.16,298.84 L 569.32,299.15 L 571.51,300.06 L 572.58,300.57 L 574.56,301.84 L 575.53,302.52 L 577.27,304.13 L 578.10,304.97 L 579.57,306.87 L 580.27,307.86 L 581.44,310.02 L 581.98,311.14 L 582.81,313.54 L 583.64,317.37 L 584.27,322.00 L 573.14,322.00 L 562.00,322.00 L 562.00,319.00 L 562.00,316.00 L 569.50,316.00 L 570.53,316.00 L 572.41,315.94 L 573.31,315.90 L 574.80,315.78 L 575.48,315.71 L 576.41,315.54 L 577.00,315.25 L 576.99,314.99 L 576.80,314.33 L 576.68,313.99 L 576.28,313.20 L 575.83,312.39 L 574.48,310.60 L 573.76,309.72 L 572.14,308.12 L 569.79,306.39 L 568.66,305.80 L 566.08,305.09 L 564.77,304.81 L 562.07,304.71 L 560.75,304.74 L 558.28,305.24 L 555.21,306.68 L 553.78,307.74 L 551.58,310.13 L 550.58,311.36 L 549.23,313.99 L 548.65,315.32 L 548.13,318.04 L 547.96,319.40 L 548.24,322.07 L 548.47,323.38 L 549.52,325.86 L 550.14,327.07 L 551.94,329.21 L 552.93,330.23 L 555.46,331.91 L 560.04,333.72 L 560.72,333.90 L 561.75,334.28 L 562.21,334.48 L 562.86,334.98 L 563.15,335.25 L 563.51,335.95 L 563.82,337.31 L 563.89,337.94 L 563.90,338.79 L 563.86,339.16 L 563.51,339.59 L 563.28,339.77 L 562.41,339.92 L 560.32,339.96 L 559.27,339.95 L 556.72,339.54 L 555.47,339.29 M 598.39,338.42 L 597.23,337.85 L 595.17,336.48 L 594.19,335.77 L 592.49,334.17 L 591.69,333.34 L 590.35,331.53 L 589.72,330.61 L 588.72,328.66 L 588.26,327.66 L 587.60,325.60 L 587.31,324.56 L 586.98,322.43 L 586.85,321.36 L 586.83,319.21 L 586.87,318.14 L 587.16,316.01 L 587.35,314.96 L 587.95,312.90 L 588.29,311.89 L 589.19,309.95 L 589.68,309.00 L 590.86,307.22 L 591.49,306.35 L 592.96,304.77 L 593.73,304.01 L 595.47,302.68 L 596.37,302.05 L 598.38,301.02 L 599.42,300.54 L 601.68,299.84 L 605.35,299.22 L 607.15,299.07 L 610.36,299.23 L 611.91,299.39 L 614.72,300.20 L 616.09,300.70 L 618.67,302.23 L 622.43,305.38 L 623.76,306.71 L 625.70,309.37 L 626.13,310.06 L 626.85,311.54 L 627.18,312.31 L 627.71,313.99 L 627.95,314.86 L 628.32,316.82 L 628.49,317.85 L 628.72,320.17 L 628.82,321.38 L 628.94,324.14 L 629.00,328.87 L 629.00,340.00 L 625.50,340.00 L 622.00,340.00 L 622.00,327.75 L 622.00,326.02 L 621.93,323.02 L 621.89,321.60 L 621.71,319.16 L 621.61,318.00 L 621.30,316.04 L 621.12,315.11 L 620.64,313.54 L 620.38,312.80 L 619.71,311.54 L 619.34,310.95 L 618.45,309.93 L 617.97,309.45 L 616.83,308.59 L 614.79,307.39 L 613.88,306.91 L 612.07,306.25 L 611.16,305.96 L 609.37,305.65 L 608.47,305.54 L 606.72,305.59 L 605.84,305.66 L 604.14,306.06 L 603.30,306.31 L 601.67,307.06 L 600.87,307.47 L 599.34,308.56 L 598.58,309.15 L 597.16,310.58 L 595.16,313.09 L 594.47,314.10 L 593.64,316.44 L 593.31,317.64 L 593.21,320.18 L 593.25,321.45 L 593.88,323.93 L 595.61,327.31 L 596.14,328.03 L 597.84,329.56 L 598.75,330.32 L 600.86,331.72 L 601.92,332.38 L 603.95,333.36 L 604.43,333.56 L 605.30,333.83 L 606.39,334.00 L 606.67,334.00 L 607.11,334.17 L 607.32,334.29 L 607.62,334.71 L 607.75,334.96 L 607.91,335.65 L 608.00,337.00 L 608.00,337.68 L 607.91,338.62 L 607.83,339.03 L 607.48,339.52 L 607.26,339.72 L 606.50,339.90 L 604.75,339.98 L 603.86,339.97 L 601.54,339.51 L 600.39,339.23 M 631.24,309.75 L 631.50,279.50 L 634.75,279.19 L 638.00,278.87 L 638.00,309.44 L 638.00,340.00 L 634.49,340.00 L 630.97,340.00 L 631.24,309.75 M 675.50,338.43 L 674.54,337.93 L 672.79,336.82 L 671.95,336.25 L 670.45,334.99 L 669.73,334.35 L 668.47,332.95 L 667.87,332.23 L 666.86,330.68 L 666.38,329.88 L 665.61,328.18 L 665.25,327.32 L 664.72,325.47 L 664.48,324.52 L 664.19,322.52 L 664.02,319.35 L 664.02,317.99 L 664.37,315.39 L 664.61,314.12 L 665.39,311.73 L 665.83,310.57 L 667.01,308.43 L 667.65,307.39 L 669.18,305.53 L 670.00,304.64 L 671.86,303.11 L 672.83,302.38 L 674.98,301.21 L 676.09,300.67 L 678.50,299.89 L 682.35,299.22 L 684.15,299.07 L 687.36,299.23 L 688.91,299.39 L 691.72,300.20 L 693.09,300.70 L 695.67,302.23 L 699.43,305.38 L 700.76,306.71 L 702.70,309.37 L 703.13,310.06 L 703.85,311.54 L 704.18,312.31 L 704.71,313.99 L 704.95,314.86 L 705.32,316.82 L 705.49,317.85 L 705.72,320.17 L 705.82,321.38 L 705.94,324.14 L 706.00,328.87 L 706.00,340.00 L 703.12,340.00 L 700.25,340.00 L 699.83,328.19 L 699.77,326.52 L 699.60,323.61 L 699.50,322.22 L 699.23,319.82 L 699.09,318.68 L 698.70,316.71 L 698.49,315.77 L 697.96,314.17 L 697.68,313.41 L 696.97,312.10 L 696.59,311.48 L 695.69,310.39 L 695.21,309.87 L 694.07,308.93 L 692.09,307.62 L 691.20,307.10 L 689.41,306.36 L 688.51,306.03 L 686.71,305.67 L 685.81,305.54 L 684.02,305.55 L 683.14,305.61 L 681.40,305.99 L 680.53,306.23 L 678.86,306.97 L 678.03,307.39 L 676.45,308.49 L 675.67,309.08 L 674.21,310.53 L 672.16,313.09 L 671.47,314.10 L 670.64,316.44 L 670.31,317.64 L 670.21,320.18 L 670.25,321.45 L 670.88,323.93 L 672.61,327.31 L 673.14,328.03 L 674.84,329.56 L 675.75,330.32 L 677.86,331.72 L 678.92,332.38 L 680.95,333.36 L 681.43,333.56 L 682.30,333.83 L 683.39,334.00 L 683.67,334.00 L 684.11,334.17 L 684.32,334.29 L 684.62,334.71 L 684.75,334.96 L 684.91,335.65 L 685.00,337.00 L 685.00,337.68 L 684.91,338.62 L 684.83,339.02 L 684.48,339.52 L 684.26,339.72 L 683.50,339.91 L 681.75,339.99 L 680.86,339.99 L 678.57,339.53 L 677.44,339.25 M 743.83,327.51 L 743.78,326.19 L 743.69,323.92 L 743.64,322.85 L 743.54,321.01 L 743.48,320.14 L 743.35,318.67 L 743.28,317.98 L 743.12,316.82 L 742.94,315.72 L 742.44,314.18 L 741.39,312.32 L 740.53,311.17 L 738.77,309.33 L 737.88,308.49 L 736.02,307.26 L 735.08,306.72 L 733.06,306.06 L 729.79,305.67 L 728.83,305.67 L 727.01,305.88 L 726.12,306.01 L 724.46,306.48 L 723.65,306.74 L 722.15,307.45 L 721.42,307.83 L 720.11,308.78 L 719.47,309.28 L 718.35,310.44 L 717.82,311.05 L 716.92,312.43 L 716.49,313.14 L 715.82,314.71 L 715.08,317.28 L 714.95,317.93 L 714.64,318.89 L 714.46,319.33 L 714.00,319.93 L 713.74,320.20 L 713.02,320.53 L 711.58,320.83 L 708.73,321.16 L 709.22,316.04 L 709.37,314.47 L 710.27,311.54 L 710.81,310.11 L 712.46,307.51 L 713.38,306.26 L 715.74,304.03 L 720.06,301.19 L 720.95,300.72 L 722.52,300.06 L 723.30,299.76 L 724.84,299.40 L 725.63,299.26 L 727.40,299.15 L 730.63,299.23 L 732.36,299.33 L 735.41,299.94 L 736.87,300.31 L 739.46,301.51 L 740.71,302.19 L 742.91,304.02 L 745.87,307.51 L 746.70,308.73 L 747.92,311.16 L 748.46,312.42 L 749.18,315.35 L 749.34,316.14 L 749.57,317.92 L 749.68,318.84 L 749.82,320.93 L 749.89,322.03 L 749.96,324.51 L 750.00,328.74 L 750.00,340.00 L 747.12,340.00 L 744.24,340.00 L 743.83,327.51 M 788.50,338.58 L 787.57,338.17 L 785.65,336.86 L 784.70,336.14 L 782.91,334.40 L 782.05,333.50 L 780.61,331.57 L 779.06,328.68 L 778.98,328.47 L 778.83,327.65 L 778.76,327.17 L 778.63,325.85 L 778.56,325.14 L 778.45,323.36 L 778.39,322.42 L 778.29,320.22 L 778.24,319.07 L 778.17,316.50 L 778.13,315.17 L 778.08,312.26 L 778.05,310.76 L 778.02,307.55 L 778.00,302.43 L 778.00,279.00 L 789.00,279.00 L 800.00,279.00 L 800.00,282.00 L 800.00,285.00 L 792.00,285.00 L 784.00,285.00 L 784.00,304.03 L 784.00,306.62 L 784.04,311.04 L 784.07,313.13 L 784.19,316.64 L 784.26,318.29 L 784.47,321.03 L 784.60,322.31 L 784.94,324.40 L 785.14,325.38 L 785.63,326.94 L 785.90,327.67 L 786.58,328.85 L 786.94,329.40 L 787.81,330.31 L 789.38,331.51 L 789.73,331.74 L 790.69,332.20 L 791.19,332.43 L 792.36,332.85 L 795.96,333.72 L 796.88,333.84 L 798.13,334.10 L 798.68,334.24 L 799.35,334.64 L 799.63,334.87 L 799.88,335.57 L 800.00,337.13 L 800.00,337.81 L 799.90,338.72 L 799.82,339.12 L 799.38,339.58 L 799.10,339.76 L 798.11,339.92 L 795.75,339.96 L 794.58,339.95 L 791.87,339.54 L 791.21,339.41 L 790.00,339.11 L 789.43,338.94 M 835.98,330.25 L 835.97,328.69 L 835.91,325.93 L 835.88,324.61 L 835.74,322.30 L 835.65,321.19 L 835.42,319.25 L 835.28,318.32 L 834.93,316.68 L 834.55,315.12 L 833.37,312.63 L 830.87,309.37 L 829.85,308.32 L 827.73,306.76 L 826.61,306.06 L 823.99,305.11 L 823.28,304.91 L 821.70,304.60 L 820.88,304.46 L 819.04,304.26 L 818.07,304.17 L 815.91,304.07 L 812.25,304.01 L 804.00,304.00 L 804.00,291.00 L 804.00,278.00 L 807.00,278.00 L 810.00,278.00 L 810.00,288.00 L 810.00,298.00 L 817.68,298.00 L 819.95,298.00 L 823.88,298.44 L 825.76,298.73 L 829.01,299.80 L 830.56,300.42 L 833.27,302.18 L 836.86,305.65 L 837.89,306.89 L 839.39,309.45 L 840.07,310.78 L 840.97,313.94 L 841.16,314.79 L 841.46,316.71 L 841.59,317.71 L 841.77,319.97 L 841.85,321.14 L 841.95,323.82 L 842.00,328.37 L 842.00,340.00 L 839.00,340.00 L 836.00,340.00 L 835.98,330.25 M 845.00,319.50 L 845.00,299.00 L 848.00,299.00 L 851.00,299.00 L 851.00,319.50 L 851.00,340.00 L 848.00,340.00 L 845.00,340.00 L 845.00,319.50 M 889.98,330.25 L 889.97,327.57 L 889.70,322.23 L 889.61,321.00 L 889.41,318.91 L 889.06,316.64 L 888.85,315.75 L 888.25,314.13 L 887.92,313.35 L 887.10,311.94 L 886.66,311.26 L 885.65,310.07 L 885.12,309.51 L 883.95,308.53 L 882.75,307.61 L 880.01,306.43 L 878.60,305.94 L 875.65,305.63 L 874.16,305.59 L 871.25,306.16 L 869.82,306.56 L 867.19,308.03 L 866.57,308.45 L 865.42,309.47 L 864.86,310.00 L 863.87,311.24 L 863.40,311.89 L 862.60,313.36 L 861.66,315.81 L 861.38,316.79 L 860.87,318.20 L 860.61,318.84 L 860.06,319.68 L 859.77,320.04 L 859.05,320.47 L 857.65,320.82 L 857.04,320.89 L 856.21,320.89 L 855.85,320.86 L 855.41,320.52 L 855.23,320.30 L 855.07,319.48 L 855.00,317.53 L 855.00,317.03 L 855.15,315.82 L 855.25,315.20 L 855.57,313.85 L 856.96,310.09 L 857.43,309.15 L 858.54,307.46 L 859.12,306.65 L 860.41,305.19 L 861.07,304.49 L 862.51,303.27 L 863.25,302.69 L 864.82,301.70 L 866.42,300.78 L 869.88,299.63 L 871.64,299.17 L 875.26,298.96 L 877.07,298.97 L 880.63,299.69 L 882.39,300.17 L 885.67,301.83 L 886.47,302.31 L 887.97,303.43 L 888.70,304.02 L 890.06,305.37 L 890.72,306.08 L 891.91,307.67 L 893.47,310.31 L 894.04,311.46 L 894.83,313.40 L 895.18,314.38 L 895.60,316.55 L 895.68,317.14 L 895.80,318.51 L 895.86,319.23 L 895.93,320.92 L 895.96,321.82 L 895.99,323.93 L 896.00,327.70 L 896.00,340.00 L 893.00,340.00 L 890.00,340.00 L 889.98,330.25 M 967.00,319.50 L 967.00,299.00 L 970.00,299.00 L 973.00,299.00 L 973.00,319.50 L 973.00,340.00 L 970.00,340.00 L 967.00,340.00 L 967.00,319.50 M 987.50,338.58 L 986.57,338.17 L 984.65,336.86 L 983.70,336.14 L 981.91,334.40 L 981.05,333.50 L 979.61,331.57 L 978.06,328.68 L 977.98,328.47 L 977.83,327.65 L 977.76,327.17 L 977.63,325.85 L 977.56,325.14 L 977.45,323.36 L 977.39,322.42 L 977.29,320.22 L 977.24,319.07 L 977.17,316.50 L 977.13,315.17 L 977.08,312.26 L 977.05,310.76 L 977.02,307.55 L 977.00,302.43 L 977.00,279.00 L 988.00,279.00 L 999.00,279.00 L 999.00,282.00 L 999.00,285.00 L 991.00,285.00 L 983.00,285.00 L 983.00,304.03 L 983.00,306.62 L 983.04,311.04 L 983.07,313.13 L 983.19,316.64 L 983.26,318.29 L 983.47,321.03 L 983.60,322.31 L 983.94,324.40 L 984.14,325.38 L 984.63,326.94 L 984.90,327.67 L 985.58,328.85 L 985.94,329.40 L 986.81,330.31 L 988.38,331.51 L 988.73,331.74 L 989.69,332.20 L 990.19,332.43 L 991.36,332.85 L 994.96,333.72 L 995.88,333.84 L 997.13,334.10 L 997.68,334.24 L 998.35,334.64 L 998.63,334.87 L 998.88,335.57 L 999.00,337.13 L 999.00,337.81 L 998.90,338.72 L 998.82,339.12 L 998.38,339.58 L 998.10,339.76 L 997.11,339.92 L 994.75,339.96 L 993.58,339.95 L 990.87,339.54 L 990.21,339.41 L 989.00,339.11 L 988.43,338.94 M 1062.50,338.43 L 1061.43,337.87 L 1059.50,336.58 L 1058.57,335.91 L 1056.92,334.38 L 1056.12,333.58 L 1054.72,331.78 L 1052.90,328.79 L 1052.50,328.01 L 1051.93,326.38 L 1051.68,325.50 L 1051.35,323.25 L 1051.28,322.63 L 1051.18,321.16 L 1051.14,320.39 L 1051.07,318.58 L 1051.05,317.63 L 1051.02,315.41 L 1051.00,311.54 L 1051.00,298.00 L 1054.00,298.00 L 1057.00,298.00 L 1057.00,310.25 L 1057.00,312.00 L 1057.06,315.03 L 1057.11,316.47 L 1057.28,318.96 L 1057.38,320.15 L 1057.68,322.18 L 1057.85,323.15 L 1058.31,324.80 L 1058.56,325.59 L 1059.21,326.94 L 1059.56,327.59 L 1060.41,328.73 L 1060.87,329.28 L 1061.96,330.29 L 1063.90,331.73 L 1064.93,332.42 L 1067.08,333.31 L 1068.17,333.67 L 1070.38,333.96 L 1071.48,334.02 L 1073.66,333.74 L 1074.74,333.53 L 1076.80,332.72 L 1077.81,332.25 L 1079.68,330.95 L 1080.57,330.24 L 1082.15,328.49 L 1082.89,327.56 L 1084.10,325.40 L 1085.39,321.75 L 1085.52,321.18 L 1085.84,320.36 L 1086.02,320.00 L 1086.51,319.52 L 1086.78,319.32 L 1087.55,319.11 L 1089.15,319.00 L 1089.92,319.00 L 1090.93,319.07 L 1091.35,319.14 L 1091.78,319.54 L 1091.93,319.81 L 1091.93,320.80 L 1091.60,323.25 L 1091.39,324.63 L 1090.36,327.44 L 1089.76,328.83 L 1088.09,331.49 L 1087.18,332.78 L 1085.03,335.04 L 1081.46,337.73 L 1080.86,338.07 L 1079.45,338.64 L 1078.71,338.90 L 1077.11,339.32 L 1075.46,339.70 L 1071.89,340.00 L 1070.11,340.06 L 1066.72,339.71 L 1065.91,339.58 L 1064.43,339.19 L 1063.72,338.98 M 1116.00,337.00 L 1116.00,336.32 L 1116.09,335.38 L 1116.17,334.98 L 1116.52,334.48 L 1116.74,334.27 L 1117.50,334.08 L 1119.25,333.99 L 1120.55,333.99 L 1123.13,333.66 L 1124.39,333.44 L 1126.67,332.75 L 1127.75,332.37 L 1129.47,331.43 L 1131.09,329.83 L 1131.39,329.28 L 1131.54,328.23 L 1131.55,327.72 L 1131.14,326.76 L 1130.87,326.30 L 1129.93,325.46 L 1129.39,325.05 L 1127.96,324.33 L 1127.18,323.99 L 1125.27,323.41 L 1124.26,323.14 L 1121.92,322.71 L 1120.70,322.52 L 1117.95,322.25 L 1113.40,322.06 L 1112.06,322.04 L 1109.58,321.81 L 1108.37,321.67 L 1106.17,321.18 L 1105.10,320.91 L 1103.19,320.19 L 1102.28,319.80 L 1100.69,318.85 L 1099.94,318.35 L 1098.69,317.19 L 1098.10,316.58 L 1097.21,315.23 L 1096.82,314.52 L 1096.31,312.99 L 1096.00,310.49 L 1096.00,309.42 L 1096.35,307.54 L 1096.59,306.65 L 1097.46,305.09 L 1097.96,304.36 L 1099.40,303.10 L 1100.19,302.51 L 1102.24,301.54 L 1103.34,301.09 L 1106.06,300.39 L 1107.51,300.06 L 1110.94,299.60 L 1112.75,299.39 L 1116.95,299.14 L 1124.16,299.00 L 1138.00,299.00 L 1138.00,301.88 L 1138.00,304.76 L 1122.64,305.17 L 1121.08,305.21 L 1118.36,305.30 L 1117.06,305.35 L 1114.84,305.45 L 1113.79,305.50 L 1112.00,305.63 L 1111.16,305.69 L 1109.74,305.85 L 1109.07,305.93 L 1107.96,306.12 L 1107.44,306.22 L 1106.57,306.45 L 1104.58,307.35 L 1103.84,307.84 L 1102.93,308.84 L 1102.55,309.34 L 1102.33,310.34 L 1102.30,310.83 L 1102.70,311.79 L 1102.98,312.26 L 1103.96,313.13 L 1104.52,313.55 L 1106.02,314.28 L 1106.82,314.63 L 1108.78,315.19 L 1109.81,315.45 L 1112.16,315.79 L 1116.07,316.00 L 1117.74,316.00 L 1120.85,316.23 L 1122.37,316.38 L 1125.14,316.89 L 1126.48,317.18 L 1128.89,317.97 L 1130.04,318.39 L 1132.05,319.43 L 1133.01,319.98 L 1134.59,321.26 L 1135.33,321.92 L 1136.46,323.42 L 1136.96,324.19 L 1137.61,325.89 L 1138.00,328.65 L 1138.00,329.47 L 1137.66,331.02 L 1137.43,331.77 L 1136.67,333.18 L 1136.24,333.86 L 1135.08,335.11 L 1134.47,335.71 L 1132.97,336.77 L 1132.18,337.27 L 1130.37,338.12 L 1129.43,338.52 L 1127.35,339.14 L 1126.27,339.41 L 1123.95,339.77 L 1120.25,339.99 L 1119.24,340.00 L 1117.87,339.93 L 1117.29,339.87 L 1116.60,339.57 L 1116.33,339.38 L 1116.09,338.68 L 1116.01,338.26 M 1152.50,338.58 L 1151.57,338.17 L 1149.65,336.86 L 1148.70,336.14 L 1146.91,334.40 L 1146.05,333.50 L 1144.61,331.57 L 1143.06,328.68 L 1142.98,328.47 L 1142.83,327.65 L 1142.76,327.17 L 1142.63,325.85 L 1142.56,325.14 L 1142.45,323.36 L 1142.39,322.42 L 1142.29,320.22 L 1142.24,319.07 L 1142.17,316.50 L 1142.13,315.17 L 1142.08,312.26 L 1142.05,310.76 L 1142.02,307.55 L 1142.00,302.43 L 1142.00,279.00 L 1153.00,279.00 L 1164.00,279.00 L 1164.00,282.00 L 1164.00,285.00 L 1156.00,285.00 L 1148.00,285.00 L 1148.00,304.03 L 1148.00,306.62 L 1148.04,311.04 L 1148.07,313.13 L 1148.19,316.64 L 1148.26,318.29 L 1148.47,321.03 L 1148.60,322.31 L 1148.94,324.40 L 1149.14,325.38 L 1149.63,326.94 L 1149.90,327.67 L 1150.58,328.85 L 1150.94,329.40 L 1151.81,330.31 L 1153.38,331.51 L 1153.73,331.74 L 1154.69,332.20 L 1155.19,332.43 L 1156.36,332.85 L 1159.96,333.72 L 1160.88,333.84 L 1162.13,334.10 L 1162.68,334.24 L 1163.35,334.64 L 1163.63,334.87 L 1163.88,335.57 L 1164.00,337.13 L 1164.00,337.81 L 1163.90,338.72 L 1163.82,339.12 L 1163.38,339.58 L 1163.10,339.76 L 1162.11,339.92 L 1159.75,339.96 L 1158.58,339.95 L 1155.87,339.54 L 1155.21,339.41 L 1154.00,339.11 L 1153.43,338.94 M 435.02,300.52 L 434.77,300.22 L 434.51,299.65 L 434.43,299.36 L 434.53,298.73 L 434.64,298.39 L 435.14,297.55 L 436.39,295.94 L 437.12,295.08 L 438.10,293.72 L 438.51,293.09 L 438.87,292.18 L 438.97,291.78 L 438.72,291.29 L 437.65,291.00 L 437.12,291.00 L 436.03,290.42 L 435.50,290.06 L 434.53,288.94 L 434.08,288.34 L 433.43,286.92 L 433.00,284.74 L 433.00,283.82 L 433.51,282.31 L 433.83,281.61 L 434.84,280.53 L 435.39,280.05 L 436.74,279.43 L 437.43,279.18 L 438.92,279.01 L 439.66,278.98 L 441.12,279.28 L 441.82,279.48 L 443.06,280.25 L 443.64,280.69 L 444.48,281.93 L 445.11,284.32 L 445.19,286.13 L 445.08,289.07 L 444.97,290.45 L 444.36,292.80 L 443.99,293.93 L 442.79,296.02 L 440.19,299.25 L 439.45,300.04 L 438.37,301.07 L 437.88,301.49 L 437.13,301.83 L 436.77,301.92 L 436.12,301.62 L 435.79,301.40 Z" fill="rgba(254,254,254,1)"/>
</g>
</svg>